<?xml version="1.0" encoding="UTF-8"?>
<svg width="548px" height="168px" viewBox="0 0 548 168" version="1.1" xmlns="http://www.w3.org/2000/svg" xmlns:xlink="http://www.w3.org/1999/xlink">
    <!-- Generator: Sketch 55.2 (78181) - https://sketchapp.com -->
    <title>brand-md</title>
    <desc>Created with Sketch.</desc>
    <defs>
        <path d="M75,165 L75,93.930651 L114,82 L114,89.9212712 L90.5853659,97.0841386 L90.5853659,120.773922 L106.243902,115.983754 L106.243902,123.830995 L90.5853659,128.621162 L90.5853659,160.232216 L75,165 Z M55.5105386,99.72205 L64.4894614,97 L64.4894614,106.002648 L69,104.635233 L69,109.15769 L64.4894614,110.525105 L64.4894614,128.572667 C64.4894614,130.023805 64.9672083,130.988442 65.9227166,131.466605 C66.8782249,131.944768 67.763462,132.060312 68.5784543,131.813239 L69,131.685443 L69,136.2079 L64.4894614,137.575315 C62.0163811,138.325054 59.9016481,138.082102 58.1451991,136.846453 C56.38875,135.610803 55.5105386,133.760243 55.5105386,131.294717 L55.5105386,113.247155 L51,114.61457 L51,110.092113 L55.5105386,108.724698 L55.5105386,99.72205 Z" id="path-1"></path>
        <filter x="-2.4%" y="-1.8%" width="109.5%" height="107.2%" filterUnits="objectBoundingBox" id="filter-2">
            <feOffset dx="3" dy="3" in="SourceAlpha" result="shadowOffsetOuter1"></feOffset>
            <feColorMatrix values="0 0 0 0 1   0 0 0 0 1   0 0 0 0 1  0 0 0 1 0" type="matrix" in="shadowOffsetOuter1"></feColorMatrix>
        </filter>
        <path d="M62.5105386,27.72205 L71.4894614,25 L71.4894614,34.002648 L76,32.6352332 L76,37.1576902 L71.4894614,38.5251049 L71.4894614,56.5726668 C71.4894614,58.0238051 71.9672083,58.9884415 72.9227166,59.466605 C73.8782249,59.9447684 74.763462,60.0603119 75.5784543,59.8132388 L76,59.6854431 L76,64.2079 L71.4894614,65.5753148 C69.0163811,66.3250538 66.9016481,66.0821021 65.1451991,64.8464527 C63.38875,63.6108032 62.5105386,61.7602431 62.5105386,59.2947168 L62.5105386,41.2471549 L58,42.6145697 L58,38.0921127 L62.5105386,36.724698 L62.5105386,27.72205 Z M6,85 L6,14.2594562 L21.975,9.51373091 L21.975,40.9785353 L38.025,36.2105296 L38.025,4.74572525 L54,0 L54,70.7405438 L38.025,75.4862691 L38.025,44.0214647 L21.975,48.7894704 L21.975,80.2542747 L6,85 Z" id="path-3"></path>
        <filter x="-2.1%" y="-1.8%" width="108.6%" height="107.1%" filterUnits="objectBoundingBox" id="filter-4">
            <feOffset dx="3" dy="3" in="SourceAlpha" result="shadowOffsetOuter1"></feOffset>
            <feColorMatrix values="0 0 0 0 1   0 0 0 0 1   0 0 0 0 1  0 0 0 1 0" type="matrix" in="shadowOffsetOuter1"></feColorMatrix>
        </filter>
        <path d="M33.8390625,88.5294042 L32,89.0897611 C32.2864598,86.5483102 33.5067601,84.949423 35.6609375,84.2930515 L39.3390625,83.1723378 C40.3416717,82.8668458 41.2024704,82.9674978 41.9214844,83.4742969 C42.6404984,83.981096 43,84.7356874 43,85.7380938 L43,86.6713641 C43,87.9445355 41.8169389,89.9554999 39.4507812,92.7043178 L39.2101563,92.9936703 C36.8439986,95.7482492 35.6609375,97.7073658 35.6609375,98.871079 L35.6609375,99.0352655 L43,96.7990749 L43,98.6483327 L32,102 L32,100.150742 C32,98.8775708 33.1801965,96.8645988 35.540625,94.1117656 L35.7898437,93.8197946 C38.1560014,91.0709767 39.3390625,89.0600122 39.3390625,87.7868409 L39.3390625,86.8535706 C39.3390625,86.3523674 39.155731,85.9776029 38.7890625,85.7292659 C38.422394,85.4809289 37.9927108,85.4318249 37.5,85.5819525 L35.6609375,86.1423093 C34.532286,86.4862061 33.9250004,87.2818964 33.8390625,88.5294042 Z M50.6609375,79.2889359 L54.3390625,78.1717893 C55.3416717,77.8672696 56.2024704,77.9676012 56.9214844,78.4727872 C57.6404984,78.9779733 58,79.7301629 58,80.7293789 L58,89.9290104 C58,90.9224837 57.6404984,91.8916186 56.9214844,92.8364442 C56.2024704,93.7812697 55.3416717,94.405933 54.3390625,94.7104527 L50.6609375,95.8275994 C49.6583283,96.1321191 48.7975296,96.0332231 48.0785156,95.5309083 C47.3595016,95.0285936 47,94.2749683 47,93.2700098 L47,84.0703783 C47,83.0654197 47.3595016,82.0934136 48.0785156,81.1543306 C48.7975296,80.2152476 49.6583283,79.5934556 50.6609375,79.2889359 Z M50,92.8608311 C50.1008673,93.3584791 50.3167832,93.6933176 50.6477541,93.8653565 C50.9787251,94.0373955 51.421589,94.044569 51.9763593,93.8868772 C52.5374339,93.7273934 53.0149704,93.4053763 53.4089835,92.9208162 C53.8029965,92.436256 54,91.9396944 54,91.4311162 L54,85 L50,92.8608311 Z M54,82.1019953 C53.7232691,81.1401514 53.0628983,80.8079477 52.0188679,81.1053743 C51.465406,81.2630463 50.990568,81.5830966 50.5943396,82.065535 C50.1981112,82.5479734 50,83.0463986 50,83.5608256 L50,90 L54,82.1019953 Z M65.00625,92 L65.00625,78.8760955 L63,79.4457263 L63,77.583432 L67.003125,74.566969 L69,74 L69,90.866062 L65.00625,92 Z M79,73.6307812 L79,77.5563878 C79,78.0822505 79.1947021,78.4798867 79.5841121,78.7493084 C79.9735222,79.01873 80.4454801,79.0709881 81,78.9060841 C81.5420588,78.7448858 82.0109014,78.412851 82.4065421,77.9099698 C82.8021827,77.4070885 83,76.8927243 83,76.3668616 L83,72.441255 C83,71.9092776 82.8021827,71.5110391 82.4065421,71.2465277 C82.0109014,70.9820162 81.5420588,70.9303604 81,71.0915587 C80.4517107,71.2546099 79.9813104,71.5871078 79.588785,72.0890626 C79.1962597,72.5910174 79,73.1049185 79,73.6307812 Z M83.321875,78.6746267 C83.1901035,79.9863065 82.5828179,80.8121127 81.5,81.1520703 L79.6609375,81.7294557 C78.6640575,82.0424325 77.8046911,81.9397562 77.0828125,81.4214235 C76.3609339,80.9030908 76,80.124534 76,79.0857297 L76,75.274821 C76,74.2419528 76.3595016,73.2386946 77.0785156,72.2650165 C77.7975296,71.2913384 78.6583283,70.6471212 79.6609375,70.3323457 L83.3390625,69.1775749 C84.3416717,68.8627994 85.2024704,68.9665101 85.9214844,69.4887101 C86.6404984,70.0109102 87,70.7884327 87,71.8213009 L87,78.4814871 C87,80.2919746 86.369798,82.0494976 85.109375,83.7541088 C83.848952,85.45872 82.3364672,86.5880111 80.571875,87.1420161 L77.8390625,88 L77.8390625,86.0945457 L79.6609375,85.5225564 C80.6692759,85.2059821 81.5315068,84.5613153 82.2476563,83.5885365 C82.9638057,82.6157578 83.321875,81.6129493 83.321875,80.5800811 L83.321875,78.6746267 Z" id="path-5"></path>
        <filter x="-1.8%" y="-3.0%" width="107.3%" height="112.1%" filterUnits="objectBoundingBox" id="filter-6">
            <feOffset dx="2" dy="2" in="SourceAlpha" result="shadowOffsetOuter1"></feOffset>
            <feColorMatrix values="0 0 0 0 0   0 0 0 0 0   0 0 0 0 0  0 0 0 0.5 0" type="matrix" in="shadowOffsetOuter1"></feColorMatrix>
        </filter>
        <polygon id="path-7" points="94 66.1170276 116 59.5 116 75.8829724 94 82.5"></polygon>
        <filter x="-4.5%" y="-4.3%" width="118.2%" height="117.4%" filterUnits="objectBoundingBox" id="filter-8">
            <feOffset dx="2" dy="2" in="SourceAlpha" result="shadowOffsetOuter1"></feOffset>
            <feColorMatrix values="0 0 0 0 0   0 0 0 0 0   0 0 0 0 0  0 0 0 0.5 0" type="matrix" in="shadowOffsetOuter1"></feColorMatrix>
        </filter>
        <polygon id="path-9" points="0 94.6170276 22 88 22 104.382972 0 111"></polygon>
        <filter x="-4.5%" y="-4.3%" width="118.2%" height="117.4%" filterUnits="objectBoundingBox" id="filter-10">
            <feOffset dx="2" dy="2" in="SourceAlpha" result="shadowOffsetOuter1"></feOffset>
            <feColorMatrix values="0 0 0 0 0   0 0 0 0 0   0 0 0 0 0  0 0 0 0.5 0" type="matrix" in="shadowOffsetOuter1"></feColorMatrix>
        </filter>
    </defs>
    <g id="Welcome" stroke="none" stroke-width="1" fill="none" fill-rule="evenodd">
        <g id="Desktop-HD" transform="translate(-208.000000, -20.000000)">
            <g id="Header">
                <g id="brand-md" transform="translate(208.000000, 20.000000)">
                    <path d="M171.68,56 L166.12,56 L166.12,44.24 L153.76,44.24 L153.76,56 L148.24,56 L148.24,27.64 L153.76,27.64 L153.76,39.04 L166.12,39.04 L166.12,27.64 L171.68,27.64 L171.68,56 Z M176.56,50.64 C176.56,47.12 179.16,45.16 182.44,44.68 L187.28,43.96 C188.4,43.8 188.76,43.24 188.76,42.56 C188.76,41.16 187.68,40 185.44,40 C183.12,40 181.84,41.48 181.68,43.2 L176.96,42.2 C177.28,39.12 180.12,35.72 185.4,35.72 C191.64,35.72 193.96,39.24 193.96,43.2 L193.96,52.88 C193.96,53.92 194.08,55.32 194.2,56 L189.32,56 C189.2,55.48 189.12,54.4 189.12,53.64 C188.12,55.2 186.24,56.56 183.32,56.56 C179.12,56.56 176.56,53.72 176.56,50.64 Z M184.44,52.6 C186.68,52.6 188.76,51.52 188.76,48.04 L188.76,47.16 L184.32,47.84 C182.96,48.04 181.88,48.8 181.88,50.32 C181.88,51.48 182.72,52.6 184.44,52.6 Z M204.64,56 L199.32,56 L199.32,27.04 L204.64,27.04 L204.64,56 Z M219.44,31.44 C218.24,31.44 216.68,31.96 216.68,34.16 L216.68,36.32 L221.12,36.32 L221.12,40.88 L216.68,40.88 L216.68,56 L211.32,56 L211.32,40.88 L208.04,40.88 L208.04,36.32 L211.32,36.32 L211.32,34.08 C211.32,29.64 214.12,26.76 218.48,26.76 C219.6,26.76 220.68,26.96 221.12,27.16 L221.12,31.64 C220.84,31.56 220.32,31.44 219.44,31.44 Z M235.72,36.32 L241.32,36.32 L245.56,49 L249.2,36.32 L254.48,36.32 L248.32,56 L243,56 L238.4,42.56 L233.88,56 L228.48,56 L222.2,36.32 L227.8,36.32 L231.44,48.96 L235.72,36.32 Z M256.6,50.64 C256.6,47.12 259.2,45.16 262.48,44.68 L267.32,43.96 C268.44,43.8 268.8,43.24 268.8,42.56 C268.8,41.16 267.72,40 265.48,40 C263.16,40 261.88,41.48 261.72,43.2 L257,42.2 C257.32,39.12 260.16,35.72 265.44,35.72 C271.68,35.72 274,39.24 274,43.2 L274,52.88 C274,53.92 274.12,55.32 274.24,56 L269.36,56 C269.24,55.48 269.16,54.4 269.16,53.64 C268.16,55.2 266.28,56.56 263.36,56.56 C259.16,56.56 256.6,53.72 256.6,50.64 Z M264.48,52.6 C266.72,52.6 268.8,51.52 268.8,48.04 L268.8,47.16 L264.36,47.84 C263,48.04 261.92,48.8 261.92,50.32 C261.92,51.48 262.76,52.6 264.48,52.6 Z M286.16,63.76 L280.52,63.76 L285.16,53.52 L276.8,36.32 L282.76,36.32 L288,47.84 L292.84,36.32 L298.52,36.32 L286.16,63.76 Z M318.2,30.44 L318.2,36.32 L322.16,36.32 L322.16,41.04 L318.2,41.04 L318.2,49.28 C318.2,51 319,51.56 320.52,51.56 C321.16,51.56 321.88,51.48 322.16,51.4 L322.16,55.8 C321.68,56 320.72,56.28 319.16,56.28 C315.32,56.28 312.92,54 312.92,50.2 L312.92,41.04 L309.36,41.04 L309.36,36.32 L310.36,36.32 C312.44,36.32 313.4,34.96 313.4,33.2 L313.4,30.44 L318.2,30.44 Z M335.4,51.76 C338,51.76 340.4,49.88 340.4,46.16 C340.4,42.44 338,40.56 335.4,40.56 C332.8,40.56 330.4,42.44 330.4,46.16 C330.4,49.84 332.8,51.76 335.4,51.76 Z M335.4,35.72 C341.28,35.72 345.72,40.08 345.72,46.16 C345.72,52.2 341.28,56.6 335.4,56.6 C329.52,56.6 325.08,52.2 325.08,46.16 C325.08,40.08 329.52,35.72 335.4,35.72 Z M366.36,30.44 L366.36,36.32 L370.32,36.32 L370.32,41.04 L366.36,41.04 L366.36,49.28 C366.36,51 367.16,51.56 368.68,51.56 C369.32,51.56 370.04,51.48 370.32,51.4 L370.32,55.8 C369.84,56 368.88,56.28 367.32,56.28 C363.48,56.28 361.08,54 361.08,50.2 L361.08,41.04 L357.52,41.04 L357.52,36.32 L358.52,36.32 C360.6,36.32 361.56,34.96 361.56,33.2 L361.56,30.44 L366.36,30.44 Z M380.04,44.44 L380.04,56 L374.72,56 L374.72,27.04 L380.04,27.04 L380.04,37.96 C381.32,36.44 383.48,35.8 385.36,35.8 C390.36,35.8 392.68,39.28 392.68,43.6 L392.68,56 L387.36,56 L387.36,44.52 C387.36,42.32 386.28,40.6 383.72,40.6 C381.48,40.6 380.16,42.28 380.04,44.44 Z M401.96,43.92 L410.76,43.92 C410.68,41.96 409.4,40.04 406.36,40.04 C403.6,40.04 402.08,42.12 401.96,43.92 Z M411.28,49.04 L415.72,50.36 C414.72,53.76 411.6,56.6 406.76,56.6 C401.36,56.6 396.6,52.72 396.6,46.08 C396.6,39.8 401.24,35.72 406.28,35.72 C412.36,35.72 416,39.6 416,45.92 C416,46.68 415.92,47.48 415.92,47.56 L401.84,47.56 C401.96,50.16 404.16,52.04 406.8,52.04 C409.28,52.04 410.64,50.8 411.28,49.04 Z M436.04,56 L430.48,56 L430.48,27.64 L448.4,27.64 L448.4,32.88 L436,32.88 L436,39.88 L447.04,39.88 L447.04,44.96 L436.04,44.96 L436.04,56 Z M465.44,56 C465.36,55.6 465.28,54.68 465.28,53.88 C464.2,55.72 461.92,56.52 459.84,56.52 C455.08,56.52 452.36,53.04 452.36,48.76 L452.36,36.32 L457.68,36.32 L457.68,47.68 C457.68,49.88 458.8,51.64 461.28,51.64 C463.64,51.64 465,50.04 465,47.76 L465,36.32 L470.32,36.32 L470.32,52.44 C470.32,53.96 470.44,55.32 470.52,56 L465.44,56 Z M482.56,30.44 L482.56,36.32 L486.52,36.32 L486.52,41.04 L482.56,41.04 L482.56,49.28 C482.56,51 483.36,51.56 484.88,51.56 C485.52,51.56 486.24,51.48 486.52,51.4 L486.52,55.8 C486.04,56 485.08,56.28 483.52,56.28 C479.68,56.28 477.28,54 477.28,50.2 L477.28,41.04 L473.72,41.04 L473.72,36.32 L474.72,36.32 C476.8,36.32 477.76,34.96 477.76,33.2 L477.76,30.44 L482.56,30.44 Z M503.8,56 C503.72,55.6 503.64,54.68 503.64,53.88 C502.56,55.72 500.28,56.52 498.2,56.52 C493.44,56.52 490.72,53.04 490.72,48.76 L490.72,36.32 L496.04,36.32 L496.04,47.68 C496.04,49.88 497.16,51.64 499.64,51.64 C502,51.64 503.36,50.04 503.36,47.76 L503.36,36.32 L508.68,36.32 L508.68,52.44 C508.68,53.96 508.8,55.32 508.88,56 L503.8,56 Z M526.36,36.24 L526.36,41.6 C525.76,41.48 525.24,41.44 524.76,41.44 C522.04,41.44 519.68,42.76 519.68,47 L519.68,56 L514.36,56 L514.36,36.32 L519.52,36.32 L519.52,39.24 C520.72,36.64 523.44,36.16 525.12,36.16 C525.56,36.16 525.96,36.2 526.36,36.24 Z M533.88,43.92 L542.68,43.92 C542.6,41.96 541.32,40.04 538.28,40.04 C535.52,40.04 534,42.12 533.88,43.92 Z M543.2,49.04 L547.64,50.36 C546.64,53.76 543.52,56.6 538.68,56.6 C533.28,56.6 528.52,52.72 528.52,46.08 C528.52,39.8 533.16,35.72 538.2,35.72 C544.28,35.72 547.92,39.6 547.92,45.92 C547.92,46.68 547.84,47.48 547.84,47.56 L533.76,47.56 C533.88,50.16 536.08,52.04 538.72,52.04 C541.2,52.04 542.56,50.8 543.2,49.04 Z" id="HalfwaytotheFuture" fill="#000000" fill-rule="nonzero"></path>
                    <rect id="Rectangle" fill="#FFFFFF" x="143" y="123" width="210" height="26"></rect>
                    <path d="M156.24,92 L155.06,88.76 L149.3,88.76 L148.12,92 L145.2,92 L150.64,77.82 L153.84,77.82 L159.24,92 L156.24,92 Z M152.18,80.88 L150.22,86.24 L154.14,86.24 L152.18,80.88 Z M169.08,79.22 L169.08,82.16 L171.06,82.16 L171.06,84.52 L169.08,84.52 L169.08,88.64 C169.08,89.5 169.48,89.78 170.24,89.78 C170.56,89.78 170.92,89.74 171.06,89.7 L171.06,91.9 C170.82,92 170.34,92.14 169.56,92.14 C167.64,92.14 166.44,91 166.44,89.1 L166.44,84.52 L164.66,84.52 L164.66,82.16 L165.16,82.16 C166.2,82.16 166.68,81.48 166.68,80.6 L166.68,79.22 L169.08,79.22 Z M178.84,82.16 L181.64,82.16 L183.76,88.5 L185.58,82.16 L188.22,82.16 L185.14,92 L182.48,92 L180.18,85.28 L177.92,92 L175.22,92 L172.08,82.16 L174.88,82.16 L176.7,88.48 L178.84,82.16 Z M194.3,89.88 C195.6,89.88 196.8,88.94 196.8,87.08 C196.8,85.22 195.6,84.28 194.3,84.28 C193,84.28 191.8,85.22 191.8,87.08 C191.8,88.92 193,89.88 194.3,89.88 Z M194.3,81.86 C197.24,81.86 199.46,84.04 199.46,87.08 C199.46,90.1 197.24,92.3 194.3,92.3 C191.36,92.3 189.14,90.1 189.14,87.08 C189.14,84.04 191.36,81.86 194.3,81.86 Z M206.84,87.24 L201.04,87.24 L201.04,84.88 L206.84,84.88 L206.84,87.24 Z M218.54,77.52 L218.54,90.22 C218.54,90.88 218.58,91.6 218.62,92 L216.08,92 C216.04,91.8 215.98,91.32 215.98,90.86 C215.54,91.64 214.54,92.24 213.22,92.24 C210.42,92.24 208.42,90.04 208.42,87.06 C208.42,84.18 210.36,81.92 213.14,81.92 C214.84,81.92 215.64,82.62 215.92,83.14 L215.92,77.52 L218.54,77.52 Z M211.1,87.06 C211.1,88.82 212.14,89.86 213.54,89.86 C214.9,89.86 215.96,88.82 215.96,87.04 C215.96,85.28 214.9,84.3 213.54,84.3 C212.18,84.3 211.1,85.3 211.1,87.06 Z M220.82,89.32 C220.82,87.56 222.12,86.58 223.76,86.34 L226.18,85.98 C226.74,85.9 226.92,85.62 226.92,85.28 C226.92,84.58 226.38,84 225.26,84 C224.1,84 223.46,84.74 223.38,85.6 L221.02,85.1 C221.18,83.56 222.6,81.86 225.24,81.86 C228.36,81.86 229.52,83.62 229.52,85.6 L229.52,90.44 C229.52,90.96 229.58,91.66 229.64,92 L227.2,92 C227.14,91.74 227.1,91.2 227.1,90.82 C226.6,91.6 225.66,92.28 224.2,92.28 C222.1,92.28 220.82,90.86 220.82,89.32 Z M224.76,90.3 C225.88,90.3 226.92,89.76 226.92,88.02 L226.92,87.58 L224.7,87.92 C224.02,88.02 223.48,88.4 223.48,89.16 C223.48,89.74 223.9,90.3 224.76,90.3 Z M235.6,95.88 L232.78,95.88 L235.1,90.76 L230.92,82.16 L233.9,82.16 L236.52,87.92 L238.94,82.16 L241.78,82.16 L235.6,95.88 Z M247.5,89.26 L249.78,88.76 C249.84,89.54 250.42,90.26 251.58,90.26 C252.46,90.26 252.88,89.8 252.88,89.28 C252.88,88.84 252.58,88.48 251.82,88.32 L250.52,88.02 C248.62,87.6 247.76,86.46 247.76,85.08 C247.76,83.32 249.32,81.86 251.44,81.86 C254.24,81.86 255.18,83.64 255.3,84.7 L253.08,85.2 C253,84.62 252.58,83.88 251.46,83.88 C250.76,83.88 250.2,84.3 250.2,84.86 C250.2,85.34 250.56,85.64 251.1,85.74 L252.5,86.04 C254.44,86.44 255.42,87.62 255.42,89.06 C255.42,90.66 254.18,92.3 251.6,92.3 C248.64,92.3 247.62,90.38 247.5,89.26 Z M260.96,95.88 L258.14,95.88 L260.46,90.76 L256.28,82.16 L259.26,82.16 L261.88,87.92 L264.3,82.16 L267.14,82.16 L260.96,95.88 Z M271.42,92 L268.76,92 L268.76,82.16 L271.3,82.16 L271.3,83.36 C271.84,82.4 273.1,81.88 274.18,81.88 C275.52,81.88 276.6,82.46 277.1,83.52 C277.88,82.32 278.92,81.88 280.22,81.88 C282.04,81.88 283.78,82.98 283.78,85.62 L283.78,92 L281.2,92 L281.2,86.16 C281.2,85.1 280.68,84.3 279.46,84.3 C278.32,84.3 277.64,85.18 277.64,86.24 L277.64,92 L275,92 L275,86.16 C275,85.1 274.46,84.3 273.26,84.3 C272.1,84.3 271.42,85.16 271.42,86.24 L271.42,92 Z M289.14,95.8 L286.48,95.8 L286.48,82.16 L289.06,82.16 L289.06,83.36 C289.5,82.6 290.6,81.94 292.08,81.94 C294.96,81.94 296.62,84.14 296.62,87.06 C296.62,90.04 294.76,92.24 291.98,92.24 C290.62,92.24 289.62,91.7 289.14,91.04 L289.14,95.8 Z M294,87.08 C294,85.34 292.92,84.32 291.56,84.32 C290.2,84.32 289.1,85.34 289.1,87.08 C289.1,88.82 290.2,89.86 291.56,89.86 C292.92,89.86 294,88.84 294,87.08 Z M303.14,89.88 C304.44,89.88 305.64,88.94 305.64,87.08 C305.64,85.22 304.44,84.28 303.14,84.28 C301.84,84.28 300.64,85.22 300.64,87.08 C300.64,88.92 301.84,89.88 303.14,89.88 Z M303.14,81.86 C306.08,81.86 308.3,84.04 308.3,87.08 C308.3,90.1 306.08,92.3 303.14,92.3 C300.2,92.3 297.98,90.1 297.98,87.08 C297.98,84.04 300.2,81.86 303.14,81.86 Z M309.56,89.26 L311.84,88.76 C311.9,89.54 312.48,90.26 313.64,90.26 C314.52,90.26 314.94,89.8 314.94,89.28 C314.94,88.84 314.64,88.48 313.88,88.32 L312.58,88.02 C310.68,87.6 309.82,86.46 309.82,85.08 C309.82,83.32 311.38,81.86 313.5,81.86 C316.3,81.86 317.24,83.64 317.36,84.7 L315.14,85.2 C315.06,84.62 314.64,83.88 313.52,83.88 C312.82,83.88 312.26,84.3 312.26,84.86 C312.26,85.34 312.62,85.64 313.16,85.74 L314.56,86.04 C316.5,86.44 317.48,87.62 317.48,89.06 C317.48,90.66 316.24,92.3 313.66,92.3 C310.7,92.3 309.68,90.38 309.56,89.26 Z M322.28,92 L319.62,92 L319.62,82.16 L322.28,82.16 L322.28,92 Z M319.3,78.94 C319.3,78.02 320.04,77.28 320.94,77.28 C321.86,77.28 322.58,78.02 322.58,78.94 C322.58,79.82 321.86,80.56 320.94,80.56 C320.04,80.56 319.3,79.82 319.3,78.94 Z M331.56,92 C331.52,91.8 331.48,91.34 331.48,90.94 C330.94,91.86 329.8,92.26 328.76,92.26 C326.38,92.26 325.02,90.52 325.02,88.38 L325.02,82.16 L327.68,82.16 L327.68,87.84 C327.68,88.94 328.24,89.82 329.48,89.82 C330.66,89.82 331.34,89.02 331.34,87.88 L331.34,82.16 L334,82.16 L334,90.22 C334,90.98 334.06,91.66 334.1,92 L331.56,92 Z M339.5,92 L336.84,92 L336.84,82.16 L339.38,82.16 L339.38,83.36 C339.92,82.4 341.18,81.88 342.26,81.88 C343.6,81.88 344.68,82.46 345.18,83.52 C345.96,82.32 347,81.88 348.3,81.88 C350.12,81.88 351.86,82.98 351.86,85.62 L351.86,92 L349.28,92 L349.28,86.16 C349.28,85.1 348.76,84.3 347.54,84.3 C346.4,84.3 345.72,85.18 345.72,86.24 L345.72,92 L343.08,92 L343.08,86.16 C343.08,85.1 342.54,84.3 341.34,84.3 C340.18,84.3 339.5,85.16 339.5,86.24 L339.5,92 Z M362.16,92 L359.5,92 L359.5,82.16 L362.16,82.16 L362.16,92 Z M359.18,78.94 C359.18,78.02 359.92,77.28 360.82,77.28 C361.74,77.28 362.46,78.02 362.46,78.94 C362.46,79.82 361.74,80.56 360.82,80.56 C359.92,80.56 359.18,79.82 359.18,78.94 Z M367.66,86.34 L367.66,92 L365,92 L365,82.16 L367.58,82.16 L367.58,83.38 C368.18,82.36 369.36,81.9 370.42,81.9 C372.86,81.9 373.98,83.64 373.98,85.8 L373.98,92 L371.32,92 L371.32,86.26 C371.32,85.16 370.78,84.3 369.5,84.3 C368.34,84.3 367.66,85.2 367.66,86.34 Z M393.92,92 L391.02,92 L384.58,81.94 L384.58,92 L381.82,92 L381.82,77.82 L385.26,77.82 L391.16,87.2 L391.16,77.82 L393.92,77.82 L393.92,92 Z M401.38,89.88 C402.68,89.88 403.88,88.94 403.88,87.08 C403.88,85.22 402.68,84.28 401.38,84.28 C400.08,84.28 398.88,85.22 398.88,87.08 C398.88,88.92 400.08,89.88 401.38,89.88 Z M401.38,81.86 C404.32,81.86 406.54,84.04 406.54,87.08 C406.54,90.1 404.32,92.3 401.38,92.3 C398.44,92.3 396.22,90.1 396.22,87.08 C396.22,84.04 398.44,81.86 401.38,81.86 Z M411.92,79.22 L411.92,82.16 L413.9,82.16 L413.9,84.52 L411.92,84.52 L411.92,88.64 C411.92,89.5 412.32,89.78 413.08,89.78 C413.4,89.78 413.76,89.74 413.9,89.7 L413.9,91.9 C413.66,92 413.18,92.14 412.4,92.14 C410.48,92.14 409.28,91 409.28,89.1 L409.28,84.52 L407.5,84.52 L407.5,82.16 L408,82.16 C409.04,82.16 409.52,81.48 409.52,80.6 L409.52,79.22 L411.92,79.22 Z M419.38,79.22 L419.38,82.16 L421.36,82.16 L421.36,84.52 L419.38,84.52 L419.38,88.64 C419.38,89.5 419.78,89.78 420.54,89.78 C420.86,89.78 421.22,89.74 421.36,89.7 L421.36,91.9 C421.12,92 420.64,92.14 419.86,92.14 C417.94,92.14 416.74,91 416.74,89.1 L416.74,84.52 L414.96,84.52 L414.96,82.16 L415.46,82.16 C416.5,82.16 416.98,81.48 416.98,80.6 L416.98,79.22 L419.38,79.22 Z M426.22,92 L423.56,92 L423.56,82.16 L426.22,82.16 L426.22,92 Z M423.24,78.94 C423.24,78.02 423.98,77.28 424.88,77.28 C425.8,77.28 426.52,78.02 426.52,78.94 C426.52,79.82 425.8,80.56 424.88,80.56 C423.98,80.56 423.24,79.82 423.24,78.94 Z M431.72,86.34 L431.72,92 L429.06,92 L429.06,82.16 L431.64,82.16 L431.64,83.38 C432.24,82.36 433.42,81.9 434.48,81.9 C436.92,81.9 438.04,83.64 438.04,85.8 L438.04,92 L435.38,92 L435.38,86.26 C435.38,85.16 434.84,84.3 433.56,84.3 C432.4,84.3 431.72,85.2 431.72,86.34 Z M440.04,92.54 L442.44,91.9 C442.62,92.98 443.48,93.76 444.74,93.76 C446.42,93.76 447.36,92.92 447.36,91.02 L447.36,90.3 C446.96,90.94 446.04,91.56 444.62,91.56 C442,91.56 440.04,89.54 440.04,86.78 C440.04,84.18 441.92,81.98 444.62,81.98 C446.18,81.98 447.08,82.66 447.42,83.32 L447.42,82.16 L449.98,82.16 L449.98,90.94 C449.98,93.64 448.52,96.1 444.82,96.1 C442.12,96.1 440.32,94.42 440.04,92.54 Z M445.08,89.28 C446.44,89.28 447.4,88.3 447.4,86.78 C447.4,85.26 446.36,84.3 445.08,84.3 C443.76,84.3 442.72,85.26 442.72,86.78 C442.72,88.32 443.7,89.28 445.08,89.28 Z M455.34,86.22 L455.34,92 L452.68,92 L452.68,77.52 L455.34,77.52 L455.34,82.98 C455.98,82.22 457.06,81.9 458,81.9 C460.5,81.9 461.66,83.64 461.66,85.8 L461.66,92 L459,92 L459,86.26 C459,85.16 458.46,84.3 457.18,84.3 C456.06,84.3 455.4,85.14 455.34,86.22 Z M463.76,89.32 C463.76,87.56 465.06,86.58 466.7,86.34 L469.12,85.98 C469.68,85.9 469.86,85.62 469.86,85.28 C469.86,84.58 469.32,84 468.2,84 C467.04,84 466.4,84.74 466.32,85.6 L463.96,85.1 C464.12,83.56 465.54,81.86 468.18,81.86 C471.3,81.86 472.46,83.62 472.46,85.6 L472.46,90.44 C472.46,90.96 472.52,91.66 472.58,92 L470.14,92 C470.08,91.74 470.04,91.2 470.04,90.82 C469.54,91.6 468.6,92.28 467.14,92.28 C465.04,92.28 463.76,90.86 463.76,89.32 Z M467.7,90.3 C468.82,90.3 469.86,89.76 469.86,88.02 L469.86,87.58 L467.64,87.92 C466.96,88.02 466.42,88.4 466.42,89.16 C466.42,89.74 466.84,90.3 467.7,90.3 Z M477.8,92 L475.14,92 L475.14,82.16 L477.68,82.16 L477.68,83.36 C478.22,82.4 479.48,81.88 480.56,81.88 C481.9,81.88 482.98,82.46 483.48,83.52 C484.26,82.32 485.3,81.88 486.6,81.88 C488.42,81.88 490.16,82.98 490.16,85.62 L490.16,92 L487.58,92 L487.58,86.16 C487.58,85.1 487.06,84.3 485.84,84.3 C484.7,84.3 484.02,85.18 484.02,86.24 L484.02,92 L481.38,92 L481.38,86.16 C481.38,85.1 480.84,84.3 479.64,84.3 C478.48,84.3 477.8,85.16 477.8,86.24 L477.8,92 Z M492.66,90.4 C492.66,89.44 493.44,88.72 494.48,88.72 C495.72,88.72 496.46,89.72 496.46,91.02 C496.46,93.96 494.42,95.2 492.94,95.38 L492.94,94.1 C493.84,93.9 494.8,93.04 494.84,91.94 C494.76,92 494.54,92.06 494.32,92.06 C493.34,92.06 492.66,91.36 492.66,90.4 Z M509.54,92.32 C506.52,92.32 504.1,90.46 504.1,86.98 L504.1,77.82 L506.86,77.82 L506.86,86.78 C506.86,88.64 507.9,89.62 509.54,89.62 C511.22,89.62 512.24,88.64 512.24,86.78 L512.24,77.82 L515,77.82 L515,86.98 C515,90.46 512.58,92.32 509.54,92.32 Z M526.74,92 L522.62,86.12 L520.86,88.06 L520.86,92 L518.1,92 L518.1,77.82 L520.86,77.82 L520.86,84.24 L526.54,77.82 L530.16,77.82 L524.54,84 L530.2,92 L526.74,92 Z M148.36,110.96 L152.76,110.96 C152.72,109.98 152.08,109.02 150.56,109.02 C149.18,109.02 148.42,110.06 148.36,110.96 Z M153.02,113.52 L155.24,114.18 C154.74,115.88 153.18,117.3 150.76,117.3 C148.06,117.3 145.68,115.36 145.68,112.04 C145.68,108.9 148,106.86 150.52,106.86 C153.56,106.86 155.38,108.8 155.38,111.96 C155.38,112.34 155.34,112.74 155.34,112.78 L148.3,112.78 C148.36,114.08 149.46,115.02 150.78,115.02 C152.02,115.02 152.7,114.4 153.02,113.52 Z M156.3,117 L159.8,112.06 L156.3,107.16 L159.46,107.16 C159.8,107.7 161.08,109.54 161.42,110.08 L163.36,107.16 L166.38,107.16 L162.94,111.98 L166.5,117 L163.38,117 L161.32,113.98 C160.96,114.52 159.64,116.46 159.3,117 L156.3,117 Z M170.78,120.8 L168.12,120.8 L168.12,107.16 L170.7,107.16 L170.7,108.36 C171.14,107.6 172.24,106.94 173.72,106.94 C176.6,106.94 178.26,109.14 178.26,112.06 C178.26,115.04 176.4,117.24 173.62,117.24 C172.26,117.24 171.26,116.7 170.78,116.04 L170.78,120.8 Z M175.64,112.08 C175.64,110.34 174.56,109.32 173.2,109.32 C171.84,109.32 170.74,110.34 170.74,112.08 C170.74,113.82 171.84,114.86 173.2,114.86 C174.56,114.86 175.64,113.84 175.64,112.08 Z M183.02,117 L180.36,117 L180.36,102.52 L183.02,102.52 L183.02,117 Z M190.28,114.88 C191.58,114.88 192.78,113.94 192.78,112.08 C192.78,110.22 191.58,109.28 190.28,109.28 C188.98,109.28 187.78,110.22 187.78,112.08 C187.78,113.92 188.98,114.88 190.28,114.88 Z M190.28,106.86 C193.22,106.86 195.44,109.04 195.44,112.08 C195.44,115.1 193.22,117.3 190.28,117.3 C187.34,117.3 185.12,115.1 185.12,112.08 C185.12,109.04 187.34,106.86 190.28,106.86 Z M203.54,107.12 L203.54,109.8 C203.24,109.74 202.98,109.72 202.74,109.72 C201.38,109.72 200.2,110.38 200.2,112.5 L200.2,117 L197.54,117 L197.54,107.16 L200.12,107.16 L200.12,108.62 C200.72,107.32 202.08,107.08 202.92,107.08 C203.14,107.08 203.34,107.1 203.54,107.12 Z M208.02,117 L205.36,117 L205.36,107.16 L208.02,107.16 L208.02,117 Z M205.04,103.94 C205.04,103.02 205.78,102.28 206.68,102.28 C207.6,102.28 208.32,103.02 208.32,103.94 C208.32,104.82 207.6,105.56 206.68,105.56 C205.78,105.56 205.04,104.82 205.04,103.94 Z M213.52,111.34 L213.52,117 L210.86,117 L210.86,107.16 L213.44,107.16 L213.44,108.38 C214.04,107.36 215.22,106.9 216.28,106.9 C218.72,106.9 219.84,108.64 219.84,110.8 L219.84,117 L217.18,117 L217.18,111.26 C217.18,110.16 216.64,109.3 215.36,109.3 C214.2,109.3 213.52,110.2 213.52,111.34 Z M221.84,117.54 L224.24,116.9 C224.42,117.98 225.28,118.76 226.54,118.76 C228.22,118.76 229.16,117.92 229.16,116.02 L229.16,115.3 C228.76,115.94 227.84,116.56 226.42,116.56 C223.8,116.56 221.84,114.54 221.84,111.78 C221.84,109.18 223.72,106.98 226.42,106.98 C227.98,106.98 228.88,107.66 229.22,108.32 L229.22,107.16 L231.78,107.16 L231.78,115.94 C231.78,118.64 230.32,121.1 226.62,121.1 C223.92,121.1 222.12,119.42 221.84,117.54 Z M226.88,114.28 C228.24,114.28 229.2,113.3 229.2,111.78 C229.2,110.26 228.16,109.3 226.88,109.3 C225.56,109.3 224.52,110.26 224.52,111.78 C224.52,113.32 225.5,114.28 226.88,114.28 Z M242.7,104.22 L242.7,107.16 L244.68,107.16 L244.68,109.52 L242.7,109.52 L242.7,113.64 C242.7,114.5 243.1,114.78 243.86,114.78 C244.18,114.78 244.54,114.74 244.68,114.7 L244.68,116.9 C244.44,117 243.96,117.14 243.18,117.14 C241.26,117.14 240.06,116 240.06,114.1 L240.06,109.52 L238.28,109.52 L238.28,107.16 L238.78,107.16 C239.82,107.16 240.3,106.48 240.3,105.6 L240.3,104.22 L242.7,104.22 Z M249.54,111.22 L249.54,117 L246.88,117 L246.88,102.52 L249.54,102.52 L249.54,107.98 C250.18,107.22 251.26,106.9 252.2,106.9 C254.7,106.9 255.86,108.64 255.86,110.8 L255.86,117 L253.2,117 L253.2,111.26 C253.2,110.16 252.66,109.3 251.38,109.3 C250.26,109.3 249.6,110.14 249.54,111.22 Z M260.5,110.96 L264.9,110.96 C264.86,109.98 264.22,109.02 262.7,109.02 C261.32,109.02 260.56,110.06 260.5,110.96 Z M265.16,113.52 L267.38,114.18 C266.88,115.88 265.32,117.3 262.9,117.3 C260.2,117.3 257.82,115.36 257.82,112.04 C257.82,108.9 260.14,106.86 262.66,106.86 C265.7,106.86 267.52,108.8 267.52,111.96 C267.52,112.34 267.48,112.74 267.48,112.78 L260.44,112.78 C260.5,114.08 261.6,115.02 262.92,115.02 C264.16,115.02 264.84,114.4 265.16,113.52 Z M277.22,120.8 L274.56,120.8 L274.56,107.16 L277.14,107.16 L277.14,108.36 C277.58,107.6 278.68,106.94 280.16,106.94 C283.04,106.94 284.7,109.14 284.7,112.06 C284.7,115.04 282.84,117.24 280.06,117.24 C278.7,117.24 277.7,116.7 277.22,116.04 L277.22,120.8 Z M282.08,112.08 C282.08,110.34 281,109.32 279.64,109.32 C278.28,109.32 277.18,110.34 277.18,112.08 C277.18,113.82 278.28,114.86 279.64,114.86 C281,114.86 282.08,113.84 282.08,112.08 Z M286.2,114.32 C286.2,112.56 287.5,111.58 289.14,111.34 L291.56,110.98 C292.12,110.9 292.3,110.62 292.3,110.28 C292.3,109.58 291.76,109 290.64,109 C289.48,109 288.84,109.74 288.76,110.6 L286.4,110.1 C286.56,108.56 287.98,106.86 290.62,106.86 C293.74,106.86 294.9,108.62 294.9,110.6 L294.9,115.44 C294.9,115.96 294.96,116.66 295.02,117 L292.58,117 C292.52,116.74 292.48,116.2 292.48,115.82 C291.98,116.6 291.04,117.28 289.58,117.28 C287.48,117.28 286.2,115.86 286.2,114.32 Z M290.14,115.3 C291.26,115.3 292.3,114.76 292.3,113.02 L292.3,112.58 L290.08,112.92 C289.4,113.02 288.86,113.4 288.86,114.16 C288.86,114.74 289.28,115.3 290.14,115.3 Z M296.74,114.26 L299.02,113.76 C299.08,114.54 299.66,115.26 300.82,115.26 C301.7,115.26 302.12,114.8 302.12,114.28 C302.12,113.84 301.82,113.48 301.06,113.32 L299.76,113.02 C297.86,112.6 297,111.46 297,110.08 C297,108.32 298.56,106.86 300.68,106.86 C303.48,106.86 304.42,108.64 304.54,109.7 L302.32,110.2 C302.24,109.62 301.82,108.88 300.7,108.88 C300,108.88 299.44,109.3 299.44,109.86 C299.44,110.34 299.8,110.64 300.34,110.74 L301.74,111.04 C303.68,111.44 304.66,112.62 304.66,114.06 C304.66,115.66 303.42,117.3 300.84,117.3 C297.88,117.3 296.86,115.38 296.74,114.26 Z M310.08,104.22 L310.08,107.16 L312.06,107.16 L312.06,109.52 L310.08,109.52 L310.08,113.64 C310.08,114.5 310.48,114.78 311.24,114.78 C311.56,114.78 311.92,114.74 312.06,114.7 L312.06,116.9 C311.82,117 311.34,117.14 310.56,117.14 C308.64,117.14 307.44,116 307.44,114.1 L307.44,109.52 L305.66,109.52 L305.66,107.16 L306.16,107.16 C307.2,107.16 307.68,106.48 307.68,105.6 L307.68,104.22 L310.08,104.22 Z M314.06,115.4 C314.06,114.44 314.84,113.72 315.88,113.72 C317.12,113.72 317.86,114.72 317.86,116.02 C317.86,118.96 315.82,120.2 314.34,120.38 L314.34,119.1 C315.24,118.9 316.2,118.04 316.24,116.94 C316.16,117 315.94,117.06 315.72,117.06 C314.74,117.06 314.06,116.36 314.06,115.4 Z M328.1,120.8 L325.44,120.8 L325.44,107.16 L328.02,107.16 L328.02,108.36 C328.46,107.6 329.56,106.94 331.04,106.94 C333.92,106.94 335.58,109.14 335.58,112.06 C335.58,115.04 333.72,117.24 330.94,117.24 C329.58,117.24 328.58,116.7 328.1,116.04 L328.1,120.8 Z M332.96,112.08 C332.96,110.34 331.88,109.32 330.52,109.32 C329.16,109.32 328.06,110.34 328.06,112.08 C328.06,113.82 329.16,114.86 330.52,114.86 C331.88,114.86 332.96,113.84 332.96,112.08 Z M343.68,107.12 L343.68,109.8 C343.38,109.74 343.12,109.72 342.88,109.72 C341.52,109.72 340.34,110.38 340.34,112.5 L340.34,117 L337.68,117 L337.68,107.16 L340.26,107.16 L340.26,108.62 C340.86,107.32 342.22,107.08 343.06,107.08 C343.28,107.08 343.48,107.1 343.68,107.12 Z M347.44,110.96 L351.84,110.96 C351.8,109.98 351.16,109.02 349.64,109.02 C348.26,109.02 347.5,110.06 347.44,110.96 Z M352.1,113.52 L354.32,114.18 C353.82,115.88 352.26,117.3 349.84,117.3 C347.14,117.3 344.76,115.36 344.76,112.04 C344.76,108.9 347.08,106.86 349.6,106.86 C352.64,106.86 354.46,108.8 354.46,111.96 C354.46,112.34 354.42,112.74 354.42,112.78 L347.38,112.78 C347.44,114.08 348.54,115.02 349.86,115.02 C351.1,115.02 351.78,114.4 352.1,113.52 Z M355.72,114.26 L358,113.76 C358.06,114.54 358.64,115.26 359.8,115.26 C360.68,115.26 361.1,114.8 361.1,114.28 C361.1,113.84 360.8,113.48 360.04,113.32 L358.74,113.02 C356.84,112.6 355.98,111.46 355.98,110.08 C355.98,108.32 357.54,106.86 359.66,106.86 C362.46,106.86 363.4,108.64 363.52,109.7 L361.3,110.2 C361.22,109.62 360.8,108.88 359.68,108.88 C358.98,108.88 358.42,109.3 358.42,109.86 C358.42,110.34 358.78,110.64 359.32,110.74 L360.72,111.04 C362.66,111.44 363.64,112.62 363.64,114.06 C363.64,115.66 362.4,117.3 359.82,117.3 C356.86,117.3 355.84,115.38 355.72,114.26 Z M367.72,110.96 L372.12,110.96 C372.08,109.98 371.44,109.02 369.92,109.02 C368.54,109.02 367.78,110.06 367.72,110.96 Z M372.38,113.52 L374.6,114.18 C374.1,115.88 372.54,117.3 370.12,117.3 C367.42,117.3 365.04,115.36 365.04,112.04 C365.04,108.9 367.36,106.86 369.88,106.86 C372.92,106.86 374.74,108.8 374.74,111.96 C374.74,112.34 374.7,112.74 374.7,112.78 L367.66,112.78 C367.72,114.08 368.82,115.02 370.14,115.02 C371.38,115.02 372.06,114.4 372.38,113.52 Z M379.5,111.34 L379.5,117 L376.84,117 L376.84,107.16 L379.42,107.16 L379.42,108.38 C380.02,107.36 381.2,106.9 382.26,106.9 C384.7,106.9 385.82,108.64 385.82,110.8 L385.82,117 L383.16,117 L383.16,111.26 C383.16,110.16 382.62,109.3 381.34,109.3 C380.18,109.3 379.5,110.2 379.5,111.34 Z M391.8,104.22 L391.8,107.16 L393.78,107.16 L393.78,109.52 L391.8,109.52 L391.8,113.64 C391.8,114.5 392.2,114.78 392.96,114.78 C393.28,114.78 393.64,114.74 393.78,114.7 L393.78,116.9 C393.54,117 393.06,117.14 392.28,117.14 C390.36,117.14 389.16,116 389.16,114.1 L389.16,109.52 L387.38,109.52 L387.38,107.16 L387.88,107.16 C388.92,107.16 389.4,106.48 389.4,105.6 L389.4,104.22 L391.8,104.22 Z M395.78,115.4 C395.78,114.44 396.56,113.72 397.6,113.72 C398.84,113.72 399.58,114.72 399.58,116.02 C399.58,118.96 397.54,120.2 396.06,120.38 L396.06,119.1 C396.96,118.9 397.92,118.04 397.96,116.94 C397.88,117 397.66,117.06 397.44,117.06 C396.46,117.06 395.78,116.36 395.78,115.4 Z M406.56,114.32 C406.56,112.56 407.86,111.58 409.5,111.34 L411.92,110.98 C412.48,110.9 412.66,110.62 412.66,110.28 C412.66,109.58 412.12,109 411,109 C409.84,109 409.2,109.74 409.12,110.6 L406.76,110.1 C406.92,108.56 408.34,106.86 410.98,106.86 C414.1,106.86 415.26,108.62 415.26,110.6 L415.26,115.44 C415.26,115.96 415.32,116.66 415.38,117 L412.94,117 C412.88,116.74 412.84,116.2 412.84,115.82 C412.34,116.6 411.4,117.28 409.94,117.28 C407.84,117.28 406.56,115.86 406.56,114.32 Z M410.5,115.3 C411.62,115.3 412.66,114.76 412.66,113.02 L412.66,112.58 L410.44,112.92 C409.76,113.02 409.22,113.4 409.22,114.16 C409.22,114.74 409.64,115.3 410.5,115.3 Z M420.6,111.34 L420.6,117 L417.94,117 L417.94,107.16 L420.52,107.16 L420.52,108.38 C421.12,107.36 422.3,106.9 423.36,106.9 C425.8,106.9 426.92,108.64 426.92,110.8 L426.92,117 L424.26,117 L424.26,111.26 C424.26,110.16 423.72,109.3 422.44,109.3 C421.28,109.3 420.6,110.2 420.6,111.34 Z M439,102.52 L439,115.22 C439,115.88 439.04,116.6 439.08,117 L436.54,117 C436.5,116.8 436.44,116.32 436.44,115.86 C436,116.64 435,117.24 433.68,117.24 C430.88,117.24 428.88,115.04 428.88,112.06 C428.88,109.18 430.82,106.92 433.6,106.92 C435.3,106.92 436.1,107.62 436.38,108.14 L436.38,102.52 L439,102.52 Z M431.56,112.06 C431.56,113.82 432.6,114.86 434,114.86 C435.36,114.86 436.42,113.82 436.42,112.04 C436.42,110.28 435.36,109.3 434,109.3 C432.64,109.3 431.56,110.3 431.56,112.06 Z M451.38,104.72 C450.78,104.72 450,104.98 450,106.08 L450,107.16 L452.22,107.16 L452.22,109.44 L450,109.44 L450,117 L447.32,117 L447.32,109.44 L445.68,109.44 L445.68,107.16 L447.32,107.16 L447.32,106.04 C447.32,103.82 448.72,102.38 450.9,102.38 C451.46,102.38 452,102.48 452.22,102.58 L452.22,104.82 C452.08,104.78 451.82,104.72 451.38,104.72 Z M460.38,117 C460.34,116.8 460.3,116.34 460.3,115.94 C459.76,116.86 458.62,117.26 457.58,117.26 C455.2,117.26 453.84,115.52 453.84,113.38 L453.84,107.16 L456.5,107.16 L456.5,112.84 C456.5,113.94 457.06,114.82 458.3,114.82 C459.48,114.82 460.16,114.02 460.16,112.88 L460.16,107.16 L462.82,107.16 L462.82,115.22 C462.82,115.98 462.88,116.66 462.92,117 L460.38,117 Z M468.94,104.22 L468.94,107.16 L470.92,107.16 L470.92,109.52 L468.94,109.52 L468.94,113.64 C468.94,114.5 469.34,114.78 470.1,114.78 C470.42,114.78 470.78,114.74 470.92,114.7 L470.92,116.9 C470.68,117 470.2,117.14 469.42,117.14 C467.5,117.14 466.3,116 466.3,114.1 L466.3,109.52 L464.52,109.52 L464.52,107.16 L465.02,107.16 C466.06,107.16 466.54,106.48 466.54,105.6 L466.54,104.22 L468.94,104.22 Z M479.56,117 C479.52,116.8 479.48,116.34 479.48,115.94 C478.94,116.86 477.8,117.26 476.76,117.26 C474.38,117.26 473.02,115.52 473.02,113.38 L473.02,107.16 L475.68,107.16 L475.68,112.84 C475.68,113.94 476.24,114.82 477.48,114.82 C478.66,114.82 479.34,114.02 479.34,112.88 L479.34,107.16 L482,107.16 L482,115.22 C482,115.98 482.06,116.66 482.1,117 L479.56,117 Z M490.84,107.12 L490.84,109.8 C490.54,109.74 490.28,109.72 490.04,109.72 C488.68,109.72 487.5,110.38 487.5,112.5 L487.5,117 L484.84,117 L484.84,107.16 L487.42,107.16 L487.42,108.62 C488.02,107.32 489.38,107.08 490.22,107.08 C490.44,107.08 490.64,107.1 490.84,107.12 Z M494.6,110.96 L499,110.96 C498.96,109.98 498.32,109.02 496.8,109.02 C495.42,109.02 494.66,110.06 494.6,110.96 Z M499.26,113.52 L501.48,114.18 C500.98,115.88 499.42,117.3 497,117.3 C494.3,117.3 491.92,115.36 491.92,112.04 C491.92,108.9 494.24,106.86 496.76,106.86 C499.8,106.86 501.62,108.8 501.62,111.96 C501.62,112.34 501.58,112.74 501.58,112.78 L494.54,112.78 C494.6,114.08 495.7,115.02 497.02,115.02 C498.26,115.02 498.94,114.4 499.26,113.52 Z M513.08,114.88 C514.38,114.88 515.58,113.94 515.58,112.08 C515.58,110.22 514.38,109.28 513.08,109.28 C511.78,109.28 510.58,110.22 510.58,112.08 C510.58,113.92 511.78,114.88 513.08,114.88 Z M513.08,106.86 C516.02,106.86 518.24,109.04 518.24,112.08 C518.24,115.1 516.02,117.3 513.08,117.3 C510.14,117.3 507.92,115.1 507.92,112.08 C507.92,109.04 510.14,106.86 513.08,106.86 Z M524.9,104.72 C524.3,104.72 523.52,104.98 523.52,106.08 L523.52,107.16 L525.74,107.16 L525.74,109.44 L523.52,109.44 L523.52,117 L520.84,117 L520.84,109.44 L519.2,109.44 L519.2,107.16 L520.84,107.16 L520.84,106.04 C520.84,103.82 522.24,102.38 524.42,102.38 C524.98,102.38 525.52,102.48 525.74,102.58 L525.74,104.82 C525.6,104.78 525.34,104.72 524.9,104.72 Z M158.34,142 L155.56,142 L155.56,136.12 L149.38,136.12 L149.38,142 L146.62,142 L146.62,127.82 L149.38,127.82 L149.38,133.52 L155.56,133.52 L155.56,127.82 L158.34,127.82 L158.34,142 Z M168,142.3 C164.04,142.3 160.74,139.44 160.74,134.92 C160.74,130.4 164.16,127.52 167.96,127.52 C171.88,127.52 173.9,129.92 174.46,132.22 L171.86,133.04 C171.52,131.68 170.42,130.18 167.96,130.18 C165.84,130.18 163.6,131.7 163.6,134.92 C163.6,137.94 165.72,139.6 168,139.6 C170.42,139.6 171.6,138.02 171.98,136.7 L174.56,137.48 C174.02,139.66 171.98,142.3 168,142.3 Z M179.66,142 L176.86,142 L176.86,127.82 L179.66,127.82 L179.66,142 Z M187.04,139.32 C187.04,137.56 188.34,136.58 189.98,136.34 L192.4,135.98 C192.96,135.9 193.14,135.62 193.14,135.28 C193.14,134.58 192.6,134 191.48,134 C190.32,134 189.68,134.74 189.6,135.6 L187.24,135.1 C187.4,133.56 188.82,131.86 191.46,131.86 C194.58,131.86 195.74,133.62 195.74,135.6 L195.74,140.44 C195.74,140.96 195.8,141.66 195.86,142 L193.42,142 C193.36,141.74 193.32,141.2 193.32,140.82 C192.82,141.6 191.88,142.28 190.42,142.28 C188.32,142.28 187.04,140.86 187.04,139.32 Z M190.98,140.3 C192.1,140.3 193.14,139.76 193.14,138.02 L193.14,137.58 L190.92,137.92 C190.24,138.02 189.7,138.4 189.7,139.16 C189.7,139.74 190.12,140.3 190.98,140.3 Z M201.08,136.34 L201.08,142 L198.42,142 L198.42,132.16 L201,132.16 L201,133.38 C201.6,132.36 202.78,131.9 203.84,131.9 C206.28,131.9 207.4,133.64 207.4,135.8 L207.4,142 L204.74,142 L204.74,136.26 C204.74,135.16 204.2,134.3 202.92,134.3 C201.76,134.3 201.08,135.2 201.08,136.34 Z M219.48,127.52 L219.48,140.22 C219.48,140.88 219.52,141.6 219.56,142 L217.02,142 C216.98,141.8 216.92,141.32 216.92,140.86 C216.48,141.64 215.48,142.24 214.16,142.24 C211.36,142.24 209.36,140.04 209.36,137.06 C209.36,134.18 211.3,131.92 214.08,131.92 C215.78,131.92 216.58,132.62 216.86,133.14 L216.86,127.52 L219.48,127.52 Z M212.04,137.06 C212.04,138.82 213.08,139.86 214.48,139.86 C215.84,139.86 216.9,138.82 216.9,137.04 C216.9,135.28 215.84,134.3 214.48,134.3 C213.12,134.3 212.04,135.3 212.04,137.06 Z M236.68,127.52 L236.68,140.22 C236.68,140.88 236.72,141.6 236.76,142 L234.22,142 C234.18,141.8 234.12,141.32 234.12,140.86 C233.68,141.64 232.68,142.24 231.36,142.24 C228.56,142.24 226.56,140.04 226.56,137.06 C226.56,134.18 228.5,131.92 231.28,131.92 C232.98,131.92 233.78,132.62 234.06,133.14 L234.06,127.52 L236.68,127.52 Z M229.24,137.06 C229.24,138.82 230.28,139.86 231.68,139.86 C233.04,139.86 234.1,138.82 234.1,137.04 C234.1,135.28 233.04,134.3 231.68,134.3 C230.32,134.3 229.24,135.3 229.24,137.06 Z M241.5,135.96 L245.9,135.96 C245.86,134.98 245.22,134.02 243.7,134.02 C242.32,134.02 241.56,135.06 241.5,135.96 Z M246.16,138.52 L248.38,139.18 C247.88,140.88 246.32,142.3 243.9,142.3 C241.2,142.3 238.82,140.36 238.82,137.04 C238.82,133.9 241.14,131.86 243.66,131.86 C246.7,131.86 248.52,133.8 248.52,136.96 C248.52,137.34 248.48,137.74 248.48,137.78 L241.44,137.78 C241.5,139.08 242.6,140.02 243.92,140.02 C245.16,140.02 245.84,139.4 246.16,138.52 Z M249.78,139.26 L252.06,138.76 C252.12,139.54 252.7,140.26 253.86,140.26 C254.74,140.26 255.16,139.8 255.16,139.28 C255.16,138.84 254.86,138.48 254.1,138.32 L252.8,138.02 C250.9,137.6 250.04,136.46 250.04,135.08 C250.04,133.32 251.6,131.86 253.72,131.86 C256.52,131.86 257.46,133.64 257.58,134.7 L255.36,135.2 C255.28,134.62 254.86,133.88 253.74,133.88 C253.04,133.88 252.48,134.3 252.48,134.86 C252.48,135.34 252.84,135.64 253.38,135.74 L254.78,136.04 C256.72,136.44 257.7,137.62 257.7,139.06 C257.7,140.66 256.46,142.3 253.88,142.3 C250.92,142.3 249.9,140.38 249.78,139.26 Z M262.5,142 L259.84,142 L259.84,132.16 L262.5,132.16 L262.5,142 Z M259.52,128.94 C259.52,128.02 260.26,127.28 261.16,127.28 C262.08,127.28 262.8,128.02 262.8,128.94 C262.8,129.82 262.08,130.56 261.16,130.56 C260.26,130.56 259.52,129.82 259.52,128.94 Z M264.64,142.54 L267.04,141.9 C267.22,142.98 268.08,143.76 269.34,143.76 C271.02,143.76 271.96,142.92 271.96,141.02 L271.96,140.3 C271.56,140.94 270.64,141.56 269.22,141.56 C266.6,141.56 264.64,139.54 264.64,136.78 C264.64,134.18 266.52,131.98 269.22,131.98 C270.78,131.98 271.68,132.66 272.02,133.32 L272.02,132.16 L274.58,132.16 L274.58,140.94 C274.58,143.64 273.12,146.1 269.42,146.1 C266.72,146.1 264.92,144.42 264.64,142.54 Z M269.68,139.28 C271.04,139.28 272,138.3 272,136.78 C272,135.26 270.96,134.3 269.68,134.3 C268.36,134.3 267.32,135.26 267.32,136.78 C267.32,138.32 268.3,139.28 269.68,139.28 Z M279.94,136.34 L279.94,142 L277.28,142 L277.28,132.16 L279.86,132.16 L279.86,133.38 C280.46,132.36 281.64,131.9 282.7,131.9 C285.14,131.9 286.26,133.64 286.26,135.8 L286.26,142 L283.6,142 L283.6,136.26 C283.6,135.16 283.06,134.3 281.78,134.3 C280.62,134.3 279.94,135.2 279.94,136.34 Z M294.24,137.24 L288.44,137.24 L288.44,134.88 L294.24,134.88 L294.24,137.24 Z M299.14,142 L296.56,142 L296.56,127.52 L299.18,127.52 L299.18,133.24 C299.62,132.54 300.7,131.9 302.16,131.9 C305.04,131.9 306.7,134.12 306.7,137.04 C306.7,140.02 304.86,142.24 302.06,142.24 C300.7,142.24 299.66,141.64 299.14,140.8 L299.14,142 Z M304.04,137.06 C304.04,135.26 302.96,134.28 301.6,134.28 C300.26,134.28 299.14,135.26 299.14,137.06 C299.14,138.84 300.26,139.86 301.6,139.86 C302.96,139.86 304.04,138.86 304.04,137.06 Z M308.2,139.32 C308.2,137.56 309.5,136.58 311.14,136.34 L313.56,135.98 C314.12,135.9 314.3,135.62 314.3,135.28 C314.3,134.58 313.76,134 312.64,134 C311.48,134 310.84,134.74 310.76,135.6 L308.4,135.1 C308.56,133.56 309.98,131.86 312.62,131.86 C315.74,131.86 316.9,133.62 316.9,135.6 L316.9,140.44 C316.9,140.96 316.96,141.66 317.02,142 L314.58,142 C314.52,141.74 314.48,141.2 314.48,140.82 C313.98,141.6 313.04,142.28 311.58,142.28 C309.48,142.28 308.2,140.86 308.2,139.32 Z M312.14,140.3 C313.26,140.3 314.3,139.76 314.3,138.02 L314.3,137.58 L312.08,137.92 C311.4,138.02 310.86,138.4 310.86,139.16 C310.86,139.74 311.28,140.3 312.14,140.3 Z M318.74,139.26 L321.02,138.76 C321.08,139.54 321.66,140.26 322.82,140.26 C323.7,140.26 324.12,139.8 324.12,139.28 C324.12,138.84 323.82,138.48 323.06,138.32 L321.76,138.02 C319.86,137.6 319,136.46 319,135.08 C319,133.32 320.56,131.86 322.68,131.86 C325.48,131.86 326.42,133.64 326.54,134.7 L324.32,135.2 C324.24,134.62 323.82,133.88 322.7,133.88 C322,133.88 321.44,134.3 321.44,134.86 C321.44,135.34 321.8,135.64 322.34,135.74 L323.74,136.04 C325.68,136.44 326.66,137.62 326.66,139.06 C326.66,140.66 325.42,142.3 322.84,142.3 C319.88,142.3 318.86,140.38 318.74,139.26 Z M330.74,135.96 L335.14,135.96 C335.1,134.98 334.46,134.02 332.94,134.02 C331.56,134.02 330.8,135.06 330.74,135.96 Z M335.4,138.52 L337.62,139.18 C337.12,140.88 335.56,142.3 333.14,142.3 C330.44,142.3 328.06,140.36 328.06,137.04 C328.06,133.9 330.38,131.86 332.9,131.86 C335.94,131.86 337.76,133.8 337.76,136.96 C337.76,137.34 337.72,137.74 337.72,137.78 L330.68,137.78 C330.74,139.08 331.84,140.02 333.16,140.02 C334.4,140.02 335.08,139.4 335.4,138.52 Z M349.24,127.52 L349.24,140.22 C349.24,140.88 349.28,141.6 349.32,142 L346.78,142 C346.74,141.8 346.68,141.32 346.68,140.86 C346.24,141.64 345.24,142.24 343.92,142.24 C341.12,142.24 339.12,140.04 339.12,137.06 C339.12,134.18 341.06,131.92 343.84,131.92 C345.54,131.92 346.34,132.62 346.62,133.14 L346.62,127.52 L349.24,127.52 Z M341.8,137.06 C341.8,138.82 342.84,139.86 344.24,139.86 C345.6,139.86 346.66,138.82 346.66,137.04 C346.66,135.28 345.6,134.3 344.24,134.3 C342.88,134.3 341.8,135.3 341.8,137.06 Z M363.06,132.12 L363.06,134.8 C362.76,134.74 362.5,134.72 362.26,134.72 C360.9,134.72 359.72,135.38 359.72,137.5 L359.72,142 L357.06,142 L357.06,132.16 L359.64,132.16 L359.64,133.62 C360.24,132.32 361.6,132.08 362.44,132.08 C362.66,132.08 362.86,132.1 363.06,132.12 Z M366.82,135.96 L371.22,135.96 C371.18,134.98 370.54,134.02 369.02,134.02 C367.64,134.02 366.88,135.06 366.82,135.96 Z M371.48,138.52 L373.7,139.18 C373.2,140.88 371.64,142.3 369.22,142.3 C366.52,142.3 364.14,140.36 364.14,137.04 C364.14,133.9 366.46,131.86 368.98,131.86 C372.02,131.86 373.84,133.8 373.84,136.96 C373.84,137.34 373.8,137.74 373.8,137.78 L366.76,137.78 C366.82,139.08 367.92,140.02 369.24,140.02 C370.48,140.02 371.16,139.4 371.48,138.52 Z M375.1,139.26 L377.38,138.76 C377.44,139.54 378.02,140.26 379.18,140.26 C380.06,140.26 380.48,139.8 380.48,139.28 C380.48,138.84 380.18,138.48 379.42,138.32 L378.12,138.02 C376.22,137.6 375.36,136.46 375.36,135.08 C375.36,133.32 376.92,131.86 379.04,131.86 C381.84,131.86 382.78,133.64 382.9,134.7 L380.68,135.2 C380.6,134.62 380.18,133.88 379.06,133.88 C378.36,133.88 377.8,134.3 377.8,134.86 C377.8,135.34 378.16,135.64 378.7,135.74 L380.1,136.04 C382.04,136.44 383.02,137.62 383.02,139.06 C383.02,140.66 381.78,142.3 379.2,142.3 C376.24,142.3 375.22,140.38 375.1,139.26 Z M387.1,135.96 L391.5,135.96 C391.46,134.98 390.82,134.02 389.3,134.02 C387.92,134.02 387.16,135.06 387.1,135.96 Z M391.76,138.52 L393.98,139.18 C393.48,140.88 391.92,142.3 389.5,142.3 C386.8,142.3 384.42,140.36 384.42,137.04 C384.42,133.9 386.74,131.86 389.26,131.86 C392.3,131.86 394.12,133.8 394.12,136.96 C394.12,137.34 394.08,137.74 394.08,137.78 L387.04,137.78 C387.1,139.08 388.2,140.02 389.52,140.02 C390.76,140.02 391.44,139.4 391.76,138.52 Z M395.62,139.32 C395.62,137.56 396.92,136.58 398.56,136.34 L400.98,135.98 C401.54,135.9 401.72,135.62 401.72,135.28 C401.72,134.58 401.18,134 400.06,134 C398.9,134 398.26,134.74 398.18,135.6 L395.82,135.1 C395.98,133.56 397.4,131.86 400.04,131.86 C403.16,131.86 404.32,133.62 404.32,135.6 L404.32,140.44 C404.32,140.96 404.38,141.66 404.44,142 L402,142 C401.94,141.74 401.9,141.2 401.9,140.82 C401.4,141.6 400.46,142.28 399,142.28 C396.9,142.28 395.62,140.86 395.62,139.32 Z M399.56,140.3 C400.68,140.3 401.72,139.76 401.72,138.02 L401.72,137.58 L399.5,137.92 C398.82,138.02 398.28,138.4 398.28,139.16 C398.28,139.74 398.7,140.3 399.56,140.3 Z M413,132.12 L413,134.8 C412.7,134.74 412.44,134.72 412.2,134.72 C410.84,134.72 409.66,135.38 409.66,137.5 L409.66,142 L407,142 L407,132.16 L409.58,132.16 L409.58,133.62 C410.18,132.32 411.54,132.08 412.38,132.08 C412.6,132.08 412.8,132.1 413,132.12 Z M419.24,134.32 C417.88,134.32 416.74,135.3 416.74,137.08 C416.74,138.86 417.9,139.86 419.26,139.86 C420.62,139.86 421.3,138.96 421.52,138.2 L423.86,138.98 C423.42,140.62 421.88,142.3 419.26,142.3 C416.36,142.3 414.08,140.1 414.08,137.08 C414.08,134.04 416.32,131.86 419.18,131.86 C421.86,131.86 423.38,133.52 423.8,135.18 L421.42,135.98 C421.18,135.16 420.56,134.32 419.24,134.32 Z M428.48,136.22 L428.48,142 L425.82,142 L425.82,127.52 L428.48,127.52 L428.48,132.98 C429.12,132.22 430.2,131.9 431.14,131.9 C433.64,131.9 434.8,133.64 434.8,135.8 L434.8,142 L432.14,142 L432.14,136.26 C432.14,135.16 431.6,134.3 430.32,134.3 C429.2,134.3 428.54,135.14 428.48,136.22 Z M437.36,140.32 C437.36,139.32 438.18,138.5 439.18,138.5 C440.2,138.5 441.02,139.32 441.02,140.32 C441.02,141.32 440.2,142.14 439.18,142.14 C438.18,142.14 437.36,141.32 437.36,140.32 Z" id="Atwo-daysymposiuminNottingham,UKexploringthepast,present,andfutureofHCIanddesign-basedresearch." fill="#000000" fill-rule="nonzero"></path>
                    <g id="tf">
                        <use fill="black" fill-opacity="1" filter="url(#filter-2)" xlink:href="#path-1"></use>
                        <use fill="#000000" fill-rule="evenodd" xlink:href="#path-1"></use>
                    </g>
                    <g id="ht">
                        <use fill="black" fill-opacity="1" filter="url(#filter-4)" xlink:href="#path-3"></use>
                        <use fill="#000000" fill-rule="evenodd" xlink:href="#path-3"></use>
                    </g>
                    <g id="2019">
                        <use fill="black" fill-opacity="1" filter="url(#filter-6)" xlink:href="#path-5"></use>
                        <use fill="#FFFFFF" fill-rule="evenodd" xlink:href="#path-5"></use>
                    </g>
                    <g id="Rectangle" fill-rule="nonzero">
                        <use fill="black" fill-opacity="1" filter="url(#filter-8)" xlink:href="#path-7"></use>
                        <use fill="#FFFFFF" xlink:href="#path-7"></use>
                    </g>
                    <g id="Rectangle" fill-rule="nonzero">
                        <use fill="black" fill-opacity="1" filter="url(#filter-10)" xlink:href="#path-9"></use>
                        <use fill="#FFFFFF" xlink:href="#path-9"></use>
                    </g>
                </g>
            </g>
        </g>
    </g>
</svg>