<?xml version="1.0" standalone="no"?>
<!DOCTYPE svg PUBLIC "-//W3C//DTD SVG 20010904//EN"
 "http://www.w3.org/TR/2001/REC-SVG-20010904/DTD/svg10.dtd">
<svg version="1.0" xmlns="http://www.w3.org/2000/svg"
 width="700.000000pt" height="700.000000pt" viewBox="0 0 700.000000 700.000000"
 preserveAspectRatio="xMidYMid meet">
<metadata>
Created by potrace 1.11, written by Peter Selinger 2001-2013
</metadata>
<g transform="translate(0.000000,700.000000) scale(0.100000,-0.100000)"
fill="#000000" stroke="none">
<path d="M3240 6988 c-72 -20 -537 -160 -596 -179 l-61 -20 0 -692 0 -692
-335 -101 c-184 -56 -340 -104 -345 -107 -6 -4 -13 1 -15 11 -2 9 -4 322 -3
695 0 372 -1 677 -3 677 -1 0 -71 -21 -155 -46 -83 -25 -165 -50 -182 -54 -16
-5 -91 -27 -165 -50 -74 -23 -146 -45 -160 -49 l-25 -7 -3 -1557 c-1 -856 0
-1557 3 -1557 6 0 185 52 310 90 33 10 121 36 195 58 74 22 146 45 160 50 l25
10 0 690 0 691 65 20 c228 72 626 189 629 185 2 -2 4 -312 4 -689 0 -490 3
-685 11 -685 6 0 45 11 86 24 41 13 193 58 337 101 l261 78 0 1558 c0 858 -1
1559 -2 1558 0 0 -17 -5 -36 -11z"/>
<path d="M3880 5854 c-80 -24 -161 -48 -180 -54 l-36 -10 1 -182 c0 -101 -1
-190 -3 -200 -3 -11 -34 -24 -103 -44 l-99 -27 0 -99 c0 -54 1 -98 3 -98 1 0
40 11 87 24 47 13 91 25 99 27 12 3 14 -63 15 -421 2 -460 4 -480 56 -545 94
-118 219 -138 425 -70 22 7 59 18 83 24 l42 12 0 97 0 97 -59 0 c-66 0 -106
21 -129 69 -17 34 -20 855 -4 865 6 3 51 17 101 30 l91 25 0 98 c0 54 -3 98
-7 98 -5 0 -48 -12 -96 -26 -49 -14 -91 -23 -94 -20 -3 3 -5 89 -5 191 0 184
0 185 -21 184 -12 -1 -87 -21 -167 -45z"/>
<path d="M5930 4539 c-140 -44 -291 -90 -335 -104 -179 -53 -351 -108 -365
-115 -13 -7 -15 -57 -14 -372 1 -199 2 -366 3 -370 0 -4 13 -3 29 2 15 4 124
38 242 75 118 37 274 85 345 107 72 22 173 53 225 70 52 16 104 32 115 35 20
4 20 12 20 373 0 203 -2 370 -5 373 -3 3 -120 -31 -260 -74z"/>
<path d="M4620 4120 c-14 -5 -65 -21 -115 -35 -79 -24 -96 -33 -137 -75 -58
-60 -68 -95 -68 -235 0 -133 14 -167 80 -186 36 -11 51 -10 118 10 87 25 100
34 118 76 l13 30 1 -44 c1 -111 -67 -201 -180 -238 -58 -19 -65 -24 -67 -50
-5 -51 0 -53 74 -31 123 37 198 86 260 171 65 89 76 131 77 322 2 199 -5 243
-41 269 -29 21 -96 30 -133 16z m8 -128 c14 -36 14 -189 1 -229 -13 -41 -53
-73 -89 -73 -46 0 -55 22 -56 141 -2 122 12 160 68 183 40 17 64 10 76 -22z"/>
<path d="M3917 3894 c-35 -12 -89 -51 -163 -117 -20 -18 -30 -36 -29 -50 1
-12 3 -28 4 -36 1 -12 23 -11 63 4 11 4 13 -44 13 -275 0 -154 1 -280 3 -280
10 0 138 44 145 50 7 6 12 709 5 715 -2 1 -20 -4 -41 -11z"/>
<path d="M3299 3730 c-159 -46 -200 -73 -246 -162 -20 -41 -22 -57 -23 -283 0
-217 1 -243 18 -275 22 -41 70 -62 124 -54 63 9 218 62 253 85 18 13 48 46 66
73 l33 51 2 240 c2 258 -4 295 -46 326 -40 29 -79 29 -181 -1z m29 -113 c19
-15 15 -38 -18 -105 -16 -34 -30 -64 -30 -66 0 -2 -20 -46 -45 -97 l-44 -94
-1 150 c0 165 4 180 62 215 30 18 50 17 76 -3z m26 -485 c-29 -55 -90 -77
-125 -46 -22 20 -21 23 76 229 23 50 46 102 51 115 6 17 10 -21 12 -120 3
-123 0 -150 -14 -178z"/>
<path d="M6035 3633 c-22 -5 -205 -60 -245 -73 -14 -5 -63 -20 -110 -34 -47
-14 -204 -61 -350 -106 -146 -45 -272 -83 -280 -85 -44 -10 -687 -207 -700
-214 -13 -7 -15 -192 -16 -1563 l-1 -1555 36 9 c43 12 350 105 511 155 63 20
121 36 128 36 8 0 12 24 12 86 1 47 1 359 1 693 0 562 1 608 17 617 9 5 163
53 342 106 179 54 327 99 328 101 5 4 5 334 0 339 -2 2 -75 -18 -163 -45 -88
-27 -240 -73 -338 -103 -97 -30 -179 -52 -181 -48 -5 8 -5 1031 0 1031 2 0
121 36 266 80 145 45 337 103 428 131 306 93 330 101 331 107 1 6 5 345 4 341
0 -1 -9 -3 -20 -6z"/>
<path d="M2605 3526 c-135 -39 -184 -66 -218 -119 -25 -38 -45 -102 -35 -112
2 -3 21 0 41 6 26 7 37 15 37 29 0 36 51 78 120 98 72 22 99 17 117 -19 33
-65 -11 -161 -152 -330 -128 -152 -167 -220 -169 -295 0 -29 3 -55 7 -56 4 -1
116 30 247 68 l240 69 0 42 c0 41 -1 41 -27 33 -16 -4 -84 -24 -153 -44 -69
-20 -131 -39 -138 -41 -10 -4 -12 2 -7 26 11 49 44 99 155 234 130 157 170
227 170 298 0 60 -14 93 -50 118 -43 29 -71 29 -185 -5z"/>
<path d="M1570 3229 c-157 -49 -337 -105 -400 -125 -63 -19 -146 -46 -185 -58
l-70 -23 -3 -373 -2 -372 22 5 c13 3 163 48 333 101 171 54 317 99 325 101 8
2 78 24 155 47 l140 44 3 372 c2 350 1 372 -15 371 -10 -1 -146 -41 -303 -90z"/>
<path d="M3680 2932 c-102 -31 -187 -57 -189 -59 -3 -2 -5 -92 -5 -200 l-1
-196 -25 -8 c-14 -4 -58 -18 -97 -29 l-73 -22 0 -100 c0 -91 2 -100 18 -93 16
6 129 38 162 46 13 4 15 -49 16 -406 0 -225 4 -428 8 -450 25 -128 140 -220
271 -217 68 2 305 68 306 86 1 17 1 96 0 141 l-1 41 -55 0 c-39 0 -62 5 -82
20 -56 42 -56 44 -58 484 0 223 1 411 3 418 2 6 43 24 91 38 47 15 90 30 94
34 5 4 9 49 10 99 2 106 8 102 -106 66 -43 -14 -82 -23 -85 -21 -4 2 -7 90 -6
195 0 105 -2 191 -5 190 -3 0 -89 -26 -191 -57z"/>
</g>
</svg>
