<?xml version="1.0" encoding="UTF-8"?>
<svg width="152px" height="200px" viewBox="0 0 152 200" version="1.1" xmlns="http://www.w3.org/2000/svg" xmlns:xlink="http://www.w3.org/1999/xlink">
    <!-- Generator: Sketch 55 (78076) - https://sketchapp.com -->
    <title>logo-square</title>
    <desc>Created with Sketch.</desc>
    <defs>
        <path d="M101,198 L101,112.374278 L149,98 L149,107.5437 L120.181989,116.173661 L120.181989,144.715568 L139.454034,138.944282 L139.454034,148.398789 L120.181989,154.170075 L120.181989,192.255682 L101,198 Z M78.5128806,119.253182 L89.4871194,116 L89.4871194,126.759262 L95,125.125035 L95,130.529922 L89.4871194,132.16415 L89.4871194,153.733187 C89.4871194,155.467474 90.0710324,156.620333 91.2388759,157.191796 C92.4067193,157.76326 93.4886757,157.901348 94.4847775,157.606066 L95,157.453334 L95,162.858222 L89.4871194,164.492449 C86.4644658,165.388479 83.8797922,165.098122 81.7330211,163.62137 C79.58625,162.144618 78.5128806,159.932973 78.5128806,156.986369 L78.5128806,135.417331 L73,137.051559 L73,131.646671 L78.5128806,130.012444 L78.5128806,119.253182 Z" id="path-1"></path>
        <filter x="-2.0%" y="-1.5%" width="107.9%" height="106.0%" filterUnits="objectBoundingBox" id="filter-2">
            <feOffset dx="3" dy="3" in="SourceAlpha" result="shadowOffsetOuter1"></feOffset>
            <feColorMatrix values="0 0 0 0 1   0 0 0 0 1   0 0 0 0 1  0 0 0 1 0" type="matrix" in="shadowOffsetOuter1"></feColorMatrix>
        </filter>
        <path d="M71.5128806,35.2531817 L82.4871194,32 L82.4871194,42.7592622 L88,41.1250348 L88,46.5299224 L82.4871194,48.1641498 L82.4871194,69.7331872 C82.4871194,71.4674744 83.0710324,72.6203326 84.2388759,73.1917962 C85.4067193,73.7632599 86.4886757,73.9013484 87.4847775,73.6060659 L88,73.4533344 L88,78.858222 L82.4871194,80.4924494 C79.4644658,81.3884789 76.8797922,81.0981221 74.7330211,79.6213703 C72.58625,78.1446184 71.5128806,75.9329734 71.5128806,72.9863689 L71.5128806,51.4173315 L66,53.0515589 L66,47.6466713 L71.5128806,46.0124439 L71.5128806,35.2531817 Z M3,105 L3,19.2791057 L22.303125,13.5284033 L22.303125,51.6563428 L41.696875,45.8786418 L41.696875,7.75070237 L61,2 L61,87.7208943 L41.696875,93.4715967 L41.696875,55.3436572 L22.303125,61.1213582 L22.303125,99.2492976 L3,105 Z" id="path-3"></path>
        <filter x="-1.8%" y="-1.5%" width="107.1%" height="105.8%" filterUnits="objectBoundingBox" id="filter-4">
            <feOffset dx="3" dy="3" in="SourceAlpha" result="shadowOffsetOuter1"></feOffset>
            <feColorMatrix values="0 0 0 0 1   0 0 0 0 1   0 0 0 0 1  0 0 0 1 0" type="matrix" in="shadowOffsetOuter1"></feColorMatrix>
        </filter>
        <path d="M43.340625,103.693489 L41,104.371816 C41.3645852,101.295323 42.9176946,99.3598278 45.659375,98.5652729 L50.340625,97.2086194 C51.616673,96.8388133 52.712235,96.9606552 53.6273438,97.5741488 C54.5424525,98.1876425 55,99.1010953 55,100.314535 L55,101.444283 C55,102.98549 53.4942859,105.419816 50.4828125,108.747332 L50.1765625,109.097601 C47.1650891,112.432091 45.659375,114.803653 45.659375,116.212359 L45.659375,116.411111 L55,113.704143 L55,115.942719 L41,120 L41,117.761425 C41,116.220217 42.5020683,113.783462 45.50625,110.451085 L45.8234375,110.097646 C48.8349109,106.77013 50.340625,104.335804 50.340625,102.794597 L50.340625,101.664849 C50.340625,101.058129 50.107294,100.604467 49.640625,100.303848 C49.173956,100.00323 48.6270865,99.9437881 48,100.125521 L45.659375,100.803848 C44.2229095,101.220144 43.4500005,102.183348 43.340625,103.693489 Z M63.659375,93.5753662 L68.340625,92.2099647 C69.616673,91.8377739 70.712235,91.9604015 71.6273437,92.5778511 C72.5424525,93.1953007 73,94.1146436 73,95.3359075 L73,106.579902 C73,107.794147 72.5424525,108.978645 71.6273437,110.133432 C70.712235,111.288219 69.616673,112.051696 68.340625,112.423887 L63.659375,113.789288 C62.383327,114.161479 61.287765,114.040606 60.3726562,113.426666 C59.4575475,112.812726 59,111.891628 59,110.663345 L59,99.4193512 C59,98.1910686 59.4575475,97.003061 60.3726562,95.855293 C61.287765,94.7075249 62.383327,93.9475569 63.659375,93.5753662 Z M64,109.607682 C64.1008673,110.215919 64.3167832,110.625166 64.6477541,110.835436 C64.9787251,111.045706 65.421589,111.054473 65.9763593,110.861739 C66.5374339,110.666814 67.0149704,110.273238 67.4089835,109.680998 C67.8029965,109.088757 68,108.481849 68,107.860253 L68,100 L64,109.607682 Z M68,96.3468831 C67.6540863,95.1712961 66.8286229,94.7652694 65.5235849,95.1287908 C64.8317575,95.321501 64.23821,95.7126736 63.7429245,96.3023205 C63.247639,96.8919675 63,97.5011538 63,98.1298979 L63,106 L68,96.3468831 Z M81.340625,108 L81.340625,92.6887781 L79,93.3533474 L79,91.1806707 L83.6703125,87.6614638 L86,87 L86,106.677072 L81.340625,108 Z M100,86.9596288 L100,91.3759363 C100,91.9675318 100.243378,92.4148726 100.73014,92.7179719 C101.216903,93.0210713 101.80685,93.0798616 102.5,92.8943446 C103.177573,92.7129965 103.763627,92.3394574 104.258178,91.773716 C104.752728,91.2079746 105,90.6293148 105,90.0377193 L105,85.6214118 C105,85.0229373 104.752728,84.574919 104.258178,84.2773436 C103.763627,83.9797683 103.177573,83.9216555 102.5,84.1030036 C101.814638,84.2864361 101.226638,84.6604963 100.735981,85.2251955 C100.245325,85.7898946 100,86.3680333 100,86.9596288 Z M104.31875,92.2021994 C104.151041,93.7209864 103.378132,94.6771832 102,95.0708183 L99.659375,95.7393698 C98.3906187,96.101764 97.2968796,95.9828756 96.378125,95.3827009 C95.4593704,94.7825262 95,93.8810394 95,92.6782133 L95,88.2655823 C95,87.0696295 95.4575475,85.9079622 96.3726563,84.7805455 C97.287765,83.6531287 98.383327,82.907193 99.659375,82.5427161 L104.340625,81.2056131 C105.616673,80.8411361 106.712235,80.9612222 107.627344,81.5658749 C108.542452,82.1705276 109,83.0708168 109,84.2667695 L109,91.978564 C109,94.0749179 108.197925,96.1099445 106.59375,98.0837049 C104.989575,100.057465 103.064595,101.365066 100.81875,102.006545 L97.340625,103 L97.340625,100.793684 L99.659375,100.131381 C100.942715,99.7648214 102.0401,99.0183651 102.951562,97.8919897 C103.863025,96.7656143 104.31875,95.6044676 104.31875,94.4085149 L104.31875,92.2021994 Z" id="path-5"></path>
        <filter x="-2.2%" y="-3.8%" width="108.8%" height="115.4%" filterUnits="objectBoundingBox" id="filter-6">
            <feOffset dx="3" dy="3" in="SourceAlpha" result="shadowOffsetOuter1"></feOffset>
            <feColorMatrix values="0 0 0 0 0   0 0 0 0 0   0 0 0 0 0  0 0 0 0.5 0" type="matrix" in="shadowOffsetOuter1"></feColorMatrix>
        </filter>
        <polygon id="path-7" points="122 76.0555119 149 68 149 87.9444881 122 96"></polygon>
        <filter x="-5.6%" y="-5.4%" width="122.2%" height="121.4%" filterUnits="objectBoundingBox" id="filter-8">
            <feOffset dx="3" dy="3" in="SourceAlpha" result="shadowOffsetOuter1"></feOffset>
            <feColorMatrix values="0 0 0 0 0   0 0 0 0 0   0 0 0 0 0  0 0 0 0.5 0" type="matrix" in="shadowOffsetOuter1"></feColorMatrix>
        </filter>
        <polygon id="path-9" points="0 110.343209 27 102 27 122.656791 0 131"></polygon>
        <filter x="-5.6%" y="-5.2%" width="122.2%" height="120.7%" filterUnits="objectBoundingBox" id="filter-10">
            <feOffset dx="3" dy="3" in="SourceAlpha" result="shadowOffsetOuter1"></feOffset>
            <feColorMatrix values="0 0 0 0 0   0 0 0 0 0   0 0 0 0 0  0 0 0 0.5 0" type="matrix" in="shadowOffsetOuter1"></feColorMatrix>
        </filter>
    </defs>
    <g id="logo-square" stroke="none" stroke-width="1" fill="none" fill-rule="evenodd">
        <g id="tf">
            <use fill="black" fill-opacity="1" filter="url(#filter-2)" xlink:href="#path-1"></use>
            <use fill="#000000" fill-rule="evenodd" xlink:href="#path-1"></use>
        </g>
        <g id="ht">
            <use fill="black" fill-opacity="1" filter="url(#filter-4)" xlink:href="#path-3"></use>
            <use fill="#000000" fill-rule="evenodd" xlink:href="#path-3"></use>
        </g>
        <g id="2019">
            <use fill="black" fill-opacity="1" filter="url(#filter-6)" xlink:href="#path-5"></use>
            <use fill="#FFFFFF" fill-rule="evenodd" xlink:href="#path-5"></use>
        </g>
        <g id="Rectangle" fill-rule="nonzero">
            <use fill="black" fill-opacity="1" filter="url(#filter-8)" xlink:href="#path-7"></use>
            <use fill="#FFFFFF" xlink:href="#path-7"></use>
        </g>
        <g id="Rectangle" fill-rule="nonzero">
            <use fill="black" fill-opacity="1" filter="url(#filter-10)" xlink:href="#path-9"></use>
            <use fill="#FFFFFF" xlink:href="#path-9"></use>
        </g>
    </g>
</svg>