<?xml version="1.0" encoding="UTF-8"?>
<svg width="552px" height="199px" viewBox="0 0 552 199" version="1.1" xmlns="http://www.w3.org/2000/svg" xmlns:xlink="http://www.w3.org/1999/xlink">
    <!-- Generator: Sketch 53 (72520) - https://sketchapp.com -->
    <title>logo-black</title>
    <desc>Created with Sketch.</desc>
    <defs>
        <path d="M20,89.5030209 L20,26 L34.0897328,26 L34.0897328,54.2456145 L48.2456145,54.2456145 L48.2456145,26 L62.3353473,26 L62.3353473,89.5030209 L48.2456145,89.5030209 L48.2456145,61.2574064 L34.0897328,61.2574064 L34.0897328,89.5030209 L20,89.5030209 Z M99.6706945,61.2574064 L99.6706945,54.2456145 C99.6706945,52.3052347 98.9706248,50.640502 97.5704644,49.2513665 C96.170304,47.862231 94.5110837,47.1676736 92.5927536,47.1676736 L85.5148128,47.1676736 C81.3474062,47.1676736 79.0101656,49.5269637 78.5030209,54.2456145 L71.42508,54.2456145 C72.5055188,44.8083128 77.2020494,40.0897328 85.5148128,40.0897328 L99.6706945,40.0897328 C103.529404,40.0897328 106.842333,41.4843598 109.609579,44.2736558 C112.376825,47.0629517 113.760427,50.3869047 113.760427,54.2456145 L113.760427,89.5030209 L99.6706945,89.5030209 L99.6706945,82.42508 C99.1194503,87.1437309 96.7601602,89.5030209 92.5927536,89.5030209 L85.5148128,89.5030209 C81.656103,89.5030209 78.3431747,88.1194186 75.5759285,85.3521724 C72.8086823,82.5849262 71.42508,79.2719979 71.42508,75.4132881 L71.42508,75.3471391 C71.42508,71.4884293 72.8141947,68.1755011 75.5924658,65.4082549 C78.3707368,62.6410087 81.6781527,61.2574064 85.5148128,61.2574064 L99.6706945,61.2574064 Z M99.6706945,68.3353473 L92.5927536,68.3353473 C90.6523739,68.3353473 88.9876412,69.0243922 87.5985057,70.4025029 C86.2093701,71.7806135 85.5148128,73.4288091 85.5148128,75.3471391 L85.5148128,75.4132881 C85.5148128,77.3095684 86.2038578,78.9522516 87.5819684,80.3413871 C88.960079,81.7305227 90.6303241,82.42508 92.5927536,82.42508 C94.5551832,82.42508 96.2254282,81.7305227 97.6035389,80.3413871 C98.9816495,78.9522516 99.6706945,77.3095684 99.6706945,75.4132881 L99.6706945,68.3353473 Z M122.85016,89.5030209 L122.85016,26 L136.939893,26 L136.939893,89.5030209 L122.85016,89.5030209 Z M153.173715,89.5030209 L153.173715,47.1676736 L146.095775,47.1676736 L146.095775,40.0897328 L153.173715,40.0897328 L153.173715,39.4613174 C153.173715,35.7790058 154.496682,32.6149112 157.142654,29.9689388 C159.788627,27.3229664 162.952721,26 166.635033,26 L181.353181,26 L181.353181,33.0779409 L173.679899,33.0779409 C171.915918,33.0779409 170.405531,33.7118623 169.148694,34.979724 C167.891857,36.2475858 167.263448,37.7414354 167.263448,39.4613174 L167.263448,40.0897328 L174.341389,40.0897328 L174.341389,47.1676736 L167.263448,47.1676736 L167.263448,89.5030209 L153.173715,89.5030209 Z M183.431122,40.0897328 L197.520855,40.0897328 L197.520855,82.42508 L204.598795,82.42508 C206.561225,82.42508 208.23147,81.7305227 209.609581,80.3413871 C210.987691,78.9522516 211.676736,77.3095684 211.676736,75.4132881 L211.676736,40.0897328 L225.766469,40.0897328 L225.766469,82.42508 L232.84441,82.42508 C234.76274,82.42508 236.410936,81.7305227 237.789046,80.3413871 C239.167157,78.9522516 239.856202,77.3095684 239.856202,75.4132881 L239.856202,40.0897328 L254.012084,40.0897328 L254.012084,65.3917176 C254.012084,71.9625492 251.647281,77.6237428 246.917605,82.3754683 C242.18793,87.1271938 236.515711,89.5030209 229.90078,89.5030209 L211.676736,89.5030209 L211.676736,87.2539556 C208.964615,88.7533399 205.624124,89.5030209 201.655166,89.5030209 L183.431122,89.5030209 L183.431122,40.0897328 Z M291.347431,61.2574064 L291.347431,54.2456145 C291.347431,52.3052347 290.647361,50.640502 289.247201,49.2513665 C287.84704,47.862231 286.18782,47.1676736 284.26949,47.1676736 L277.191549,47.1676736 C273.024142,47.1676736 270.686902,49.5269637 270.179757,54.2456145 L263.101816,54.2456145 C264.182255,44.8083128 268.878786,40.0897328 277.191549,40.0897328 L291.347431,40.0897328 C295.206141,40.0897328 298.519069,41.4843598 301.286315,44.2736558 C304.053561,47.0629517 305.437164,50.3869047 305.437164,54.2456145 L305.437164,89.5030209 L291.347431,89.5030209 L291.347431,82.42508 C290.796187,87.1437309 288.436897,89.5030209 284.26949,89.5030209 L277.191549,89.5030209 C273.332839,89.5030209 270.019911,88.1194186 267.252665,85.3521724 C264.485419,82.5849262 263.101816,79.2719979 263.101816,75.4132881 L263.101816,75.3471391 C263.101816,71.4884293 264.490931,68.1755011 267.269202,65.4082549 C270.047473,62.6410087 273.354889,61.2574064 277.191549,61.2574064 L291.347431,61.2574064 Z M291.347431,68.3353473 L284.26949,68.3353473 C282.32911,68.3353473 280.664377,69.0243922 279.275242,70.4025029 C277.886106,71.7806135 277.191549,73.4288091 277.191549,75.3471391 L277.191549,75.4132881 C277.191549,77.3095684 277.880594,78.9522516 279.258705,80.3413871 C280.636815,81.7305227 282.30706,82.42508 284.26949,82.42508 C286.231919,82.42508 287.902165,81.7305227 289.280275,80.3413871 C290.658386,78.9522516 291.347431,77.3095684 291.347431,75.4132881 L291.347431,68.3353473 Z M321.604837,96.5809618 C321.935584,101.255513 324.272824,103.592754 328.616629,103.592754 L335.69457,103.592754 C337.6129,103.592754 339.27212,102.903709 340.672281,101.525598 C342.072441,100.147487 342.772511,98.4992918 342.772511,96.5809618 L342.772511,82.42508 C342.221267,87.1437309 339.861977,89.5030209 335.69457,89.5030209 L328.616629,89.5030209 C324.757919,89.5030209 321.444991,88.1194186 318.677745,85.3521724 C315.910499,82.5849262 314.526896,79.2719979 314.526896,75.4132881 L314.526896,40.0897328 L328.616629,40.0897328 L328.616629,75.4132881 C328.616629,77.3095684 329.305674,78.9522516 330.683785,80.3413871 C332.061895,81.7305227 333.73214,82.42508 335.69457,82.42508 C337.657,82.42508 339.327245,81.7305227 340.705355,80.3413871 C342.083466,78.9522516 342.772511,77.3095684 342.772511,75.4132881 L342.772511,40.0897328 L356.862244,40.0897328 L356.862244,96.5809618 C356.862244,100.417622 355.467617,103.725038 352.678321,106.503309 C349.889025,109.28158 346.587121,110.670695 342.772511,110.670695 L328.616629,110.670695 C320.303866,110.670695 315.607335,105.974164 314.526896,96.5809618 L321.604837,96.5809618 Z M268.455159,172.592878 L268.455159,109.089857 L303.712565,109.089857 L303.712565,116.167798 L282.544892,116.167798 L282.544892,137.335472 L296.700773,137.335472 L296.700773,144.347264 L282.544892,144.347264 L282.544892,172.592878 L268.455159,172.592878 Z M351.203794,123.17959 L351.203794,172.592878 L337.114061,172.592878 L337.114061,165.514937 C336.562817,170.233588 334.203527,172.592878 330.036121,172.592878 L322.95818,172.592878 C319.09947,172.592878 315.786542,171.209276 313.019295,168.44203 C310.252049,165.674783 308.868447,162.361855 308.868447,158.503145 L308.868447,123.17959 L322.95818,123.17959 L322.95818,158.503145 C322.95818,160.399426 323.647225,162.042109 325.025335,163.431244 C326.403446,164.82038 328.073691,165.514937 330.036121,165.514937 C331.99855,165.514937 333.668795,164.82038 335.046906,163.431244 C336.425016,162.042109 337.114061,160.399426 337.114061,158.503145 L337.114061,123.17959 L351.203794,123.17959 Z M366.371468,109.089857 L380.461201,109.089857 L380.461201,123.17959 L387.539141,123.17959 L387.539141,130.257531 L380.461201,130.257531 L380.461201,158.503145 C380.461201,160.774272 381.210881,162.510665 382.710266,163.712378 C384.20965,164.91409 385.598765,165.514937 386.877652,165.514937 L387.539141,165.514937 L387.539141,172.592878 L380.461201,172.592878 C376.580441,172.592878 373.262,171.209276 370.505779,168.44203 C367.749558,165.674783 366.371468,162.361855 366.371468,158.503145 L366.371468,130.257531 L359.293527,130.257531 L359.293527,123.17959 L366.371468,123.17959 L366.371468,109.089857 Z M437.964221,123.17959 L437.964221,172.592878 L423.874489,172.592878 L423.874489,165.514937 C423.323244,170.233588 420.963954,172.592878 416.796548,172.592878 L409.718607,172.592878 C405.859897,172.592878 402.546969,171.209276 399.779723,168.44203 C397.012477,165.674783 395.628874,162.361855 395.628874,158.503145 L395.628874,123.17959 L409.718607,123.17959 L409.718607,158.503145 C409.718607,160.399426 410.407652,162.042109 411.785763,163.431244 C413.163873,164.82038 414.834118,165.514937 416.796548,165.514937 C418.758977,165.514937 420.429222,164.82038 421.807333,163.431244 C423.185444,162.042109 423.874489,160.399426 423.874489,158.503145 L423.874489,123.17959 L437.964221,123.17959 Z M462.143687,172.592878 L448.053954,172.592878 L448.053954,123.17959 L462.143687,123.17959 L462.143687,137.335472 C462.694931,132.616821 464.150194,129.077886 466.50952,126.71856 C468.868845,124.359235 472.132162,123.17959 476.299569,123.17959 L483.311361,123.17959 L483.311361,137.335472 L469.221628,137.335472 C467.281248,137.335472 465.616515,138.024517 464.22738,139.402627 C462.838244,140.780738 462.143687,142.428934 462.143687,144.347264 L462.143687,172.592878 Z M531.724649,151.425204 L503.479034,151.425204 L503.479034,158.503145 C503.479034,160.399426 504.168079,162.042109 505.54619,163.431244 C506.9243,164.82038 508.594546,165.514937 510.556975,165.514937 L517.634916,165.514937 C522.309467,165.514937 524.646708,163.177697 524.646708,158.503145 L531.724649,158.503145 C530.62216,167.896347 525.92563,172.592878 517.634916,172.592878 L503.479034,172.592878 C499.620324,172.592878 496.307396,171.209276 493.54015,168.44203 C490.772904,165.674783 489.389301,162.361855 489.389301,158.503145 L489.389301,137.335472 C489.389301,133.432662 490.778416,130.097685 493.556687,127.330438 C496.334958,124.563192 499.642374,123.17959 503.479034,123.17959 L517.634916,123.17959 C521.493626,123.17959 524.806554,124.574217 527.5738,127.363513 C530.341046,130.152809 531.724649,133.476762 531.724649,137.335472 L531.724649,151.425204 Z M503.479034,144.347264 L517.634916,144.347264 L517.634916,137.335472 C517.634916,135.395092 516.934846,133.730359 515.534686,132.341224 C514.134525,130.952088 512.475305,130.257531 510.556975,130.257531 C508.616595,130.257531 506.951863,130.952088 505.562727,132.341224 C504.173592,133.730359 503.479034,135.395092 503.479034,137.335472 L503.479034,144.347264 Z M127.977076,101.017997 L136.028351,101.017997 L136.028351,109.069273 L140.072889,109.069273 L140.072889,113.113811 L136.028351,113.113811 L136.028351,129.254162 C136.028351,130.551948 136.456741,131.544173 137.313532,132.230866 C138.170323,132.917559 138.964103,133.2609 139.694895,133.2609 L140.072889,133.2609 L140.072889,137.305438 L136.028351,137.305438 C133.810775,137.305438 131.914523,136.514808 130.339539,134.933524 C128.764556,133.352241 127.977076,131.459139 127.977076,129.254162 L127.977076,113.113811 L123.932538,113.113811 L123.932538,109.069273 L127.977076,109.069273 L127.977076,101.017997 Z M153.175441,109.069273 L161.264516,109.069273 C163.469493,109.069273 165.362595,109.866203 166.943879,111.460086 C168.525162,113.053969 169.315792,114.953371 169.315792,117.158348 L169.315792,129.254162 C169.315792,131.433939 168.525162,133.320741 166.943879,134.914624 C165.362595,136.508508 163.469493,137.305438 161.264516,137.305438 L153.175441,137.305438 C150.970464,137.305438 149.077362,136.514808 147.496078,134.933524 C145.914795,133.352241 145.124165,131.459139 145.124165,129.254162 L145.124165,117.158348 C145.124165,114.928171 145.917945,113.02247 147.505528,111.441186 C149.093112,109.859903 150.983064,109.069273 153.175441,109.069273 Z M153.175441,117.158348 L153.175441,129.254162 C153.175441,130.33775 153.569181,131.276427 154.356673,132.070218 C155.144164,132.86401 156.09859,133.2609 157.219978,133.2609 C158.341367,133.2609 159.295793,132.86401 160.083284,132.070218 C160.870776,131.276427 161.264516,130.33775 161.264516,129.254162 L161.264516,117.158348 C161.264516,116.04956 160.864476,115.098284 160.064385,114.304492 C159.264293,113.510701 158.316167,113.113811 157.219978,113.113811 C156.11119,113.113811 155.159914,113.510701 154.366122,114.304492 C153.572331,115.098284 153.175441,116.04956 153.175441,117.158348 Z M185.223923,101.017997 L193.275199,101.017997 L193.275199,109.069273 L197.319737,109.069273 L197.319737,113.113811 L193.275199,113.113811 L193.275199,129.254162 C193.275199,130.551948 193.703588,131.544173 194.560379,132.230866 C195.41717,132.917559 196.21095,133.2609 196.941743,133.2609 L197.319737,133.2609 L197.319737,137.305438 L193.275199,137.305438 C191.057622,137.305438 189.161371,136.514808 187.586387,134.933524 C186.011403,133.352241 185.223923,131.459139 185.223923,129.254162 L185.223923,113.113811 L181.179386,113.113811 L181.179386,109.069273 L185.223923,109.069273 L185.223923,101.017997 Z M202.371013,137.305438 L202.371013,101.017997 L210.422289,101.017997 L210.422289,113.113811 C210.586087,111.753025 211.005026,110.738751 211.679119,110.070958 C212.353212,109.403164 213.282439,109.069273 214.466826,109.069273 L218.511364,109.069273 C220.716341,109.069273 222.609443,109.866203 224.190726,111.460086 C225.77201,113.053969 226.56264,114.953371 226.56264,117.158348 L226.56264,137.305438 L218.511364,137.305438 L218.511364,117.158348 C218.511364,116.04956 218.111324,115.098284 217.311232,114.304492 C216.511141,113.510701 215.563015,113.113811 214.466826,113.113811 C213.358038,113.113811 212.406762,113.510701 211.61297,114.304492 C210.819178,115.098284 210.422289,116.04956 210.422289,117.158348 L210.422289,137.305438 L202.371013,137.305438 Z M255.805543,125.209624 L239.665191,125.209624 L239.665191,129.254162 C239.665191,130.33775 240.058931,131.276427 240.846423,132.070218 C241.633915,132.86401 242.588341,133.2609 243.709729,133.2609 L247.754267,133.2609 C250.425439,133.2609 251.761005,131.925334 251.761005,129.254162 L255.805543,129.254162 C255.175549,134.621706 252.491817,137.305438 247.754267,137.305438 L239.665191,137.305438 C237.460214,137.305438 235.567113,136.514808 233.985829,134.933524 C232.404545,133.352241 231.613916,131.459139 231.613916,129.254162 L231.613916,117.158348 C231.613916,114.928171 232.407695,113.02247 233.995279,111.441186 C235.582862,109.859903 237.472814,109.069273 239.665191,109.069273 L247.754267,109.069273 C249.959244,109.069273 251.852346,109.866203 253.433629,111.460086 C255.014913,113.053969 255.805543,114.953371 255.805543,117.158348 L255.805543,125.209624 Z M239.665191,121.165086 L247.754267,121.165086 L247.754267,117.158348 C247.754267,116.04956 247.354227,115.098284 246.554135,114.304492 C245.754044,113.510701 244.805918,113.113811 243.709729,113.113811 C242.600941,113.113811 241.649665,113.510701 240.855873,114.304492 C240.062081,115.098284 239.665191,116.04956 239.665191,117.158348 L239.665191,121.165086 Z" id="path-1"></path>
        <filter x="-0.4%" y="-1.4%" width="100.8%" height="102.7%" filterUnits="objectBoundingBox" id="filter-2">
            <feGaussianBlur stdDeviation="1.5" in="SourceAlpha" result="shadowBlurInner1"></feGaussianBlur>
            <feOffset dx="0" dy="1" in="shadowBlurInner1" result="shadowOffsetInner1"></feOffset>
            <feComposite in="shadowOffsetInner1" in2="SourceAlpha" operator="arithmetic" k2="-1" k3="1" result="shadowInnerInner1"></feComposite>
            <feColorMatrix values="0 0 0 0 0.8   0 0 0 0 0.8   0 0 0 0 0.8  0 0 0 0.5 0" type="matrix" in="shadowInnerInner1"></feColorMatrix>
        </filter>
    </defs>
    <g id="logo-black" stroke="none" stroke-width="1" fill="none" fill-rule="evenodd">
        <g id="httf">
            <use fill="#000000" fill-rule="evenodd" xlink:href="#path-1"></use>
            <use fill="black" fill-opacity="1" filter="url(#filter-2)" xlink:href="#path-1"></use>
        </g>
        <path d="M481.671875,100.328125 L480,100.328125 C480.260418,98.1093639 481.369782,97 483.328125,97 L486.671875,97 C487.583338,97 488.365882,97.3281217 489.019531,97.984375 C489.67318,98.6406283 490,99.4218705 490,100.328125 L490,101.171875 C490,102.322922 488.92449,103.815095 486.773437,105.648438 L486.554687,105.84375 C484.403635,107.682301 483.328125,109.127599 483.328125,110.179688 L483.328125,110.328125 L490,110.328125 L490,112 L480,112 L480,110.328125 C480,109.177078 481.072906,107.682301 483.21875,105.84375 L483.445312,105.648438 C485.596365,103.815095 486.671875,102.322922 486.671875,101.171875 L486.671875,100.328125 C486.671875,99.8749977 486.50521,99.4856787 486.171875,99.1601562 C485.83854,98.8346338 485.447919,98.671875 485,98.671875 L483.328125,98.671875 C482.302078,98.671875 481.75,99.2239528 481.671875,100.328125 Z M496.65625,97 L500,97 C500.911463,97 501.694007,97.3281217 502.347656,97.984375 C503.001305,98.6406283 503.328125,99.4218705 503.328125,100.328125 L503.328125,108.671875 C503.328125,109.572921 503.001305,110.352861 502.347656,111.011719 C501.694007,111.670576 500.911463,112 500,112 L496.65625,112 C495.744787,112 494.962243,111.67318 494.308594,111.019531 C493.654945,110.365882 493.328125,109.583338 493.328125,108.671875 L493.328125,100.328125 C493.328125,99.4166621 493.654945,98.6341179 494.308594,97.9804688 C494.962243,97.3268196 495.744787,97 496.65625,97 Z M496.695312,108.929688 C496.778646,109.393231 496.95703,109.742186 497.230469,109.976562 C497.503908,110.210939 497.869789,110.328125 498.328125,110.328125 C498.791669,110.328125 499.186196,110.164064 499.511719,109.835938 C499.837241,109.507811 500,109.119794 500,108.671875 L500,103.007812 L496.695312,108.929688 Z M499.96875,100.046875 C499.739582,99.1302037 499.192713,98.671875 498.328125,98.671875 C497.869789,98.671875 497.476564,98.8346338 497.148437,99.1601562 C496.820311,99.4856787 496.65625,99.8749977 496.65625,100.328125 L496.65625,106 L499.96875,100.046875 Z M509.984375,112 L509.984375,100.328125 L508.3125,100.328125 L508.3125,98.671875 L511.648437,97 L513.3125,97 L513.3125,112 L509.984375,112 Z M523.3125,100.328125 L523.3125,103.671875 C523.3125,104.119794 523.475259,104.507811 523.800781,104.835938 C524.126304,105.164064 524.520831,105.328125 524.984375,105.328125 C525.437502,105.328125 525.829425,105.164064 526.160156,104.835938 C526.490887,104.507811 526.65625,104.119794 526.65625,103.671875 L526.65625,100.328125 C526.65625,99.8749977 526.490887,99.4856787 526.160156,99.1601562 C525.829425,98.8346338 525.437502,98.671875 524.984375,98.671875 C524.526039,98.671875 524.132814,98.8359359 523.804687,99.1640625 C523.476561,99.4921891 523.3125,99.8802061 523.3125,100.328125 Z M526.640625,105.328125 C526.520833,106.442714 525.968755,107 524.984375,107 L523.3125,107 C522.406245,107 521.625003,106.67318 520.96875,106.019531 C520.312497,105.365882 519.984375,104.583338 519.984375,103.671875 L519.984375,100.328125 C519.984375,99.4218705 520.311195,98.6406283 520.964844,97.984375 C521.618493,97.3281217 522.401037,97 523.3125,97 L526.65625,97 C527.567713,97 528.350257,97.3281217 529.003906,97.984375 C529.657555,98.6406283 529.984375,99.4218705 529.984375,100.328125 L529.984375,106.171875 C529.984375,107.760425 529.411464,109.128901 528.265625,110.277344 C527.119786,111.425787 525.7448,112 524.140625,112 L521.65625,112 L521.65625,110.328125 L523.3125,110.328125 C524.229171,110.328125 525.013018,110.000003 525.664062,109.34375 C526.315107,108.687497 526.640625,107.906255 526.640625,107 L526.640625,105.328125 Z" id="2019" fill="#000000"></path>
    </g>
</svg>