<?xml version="1.0" standalone="no"?>
<!DOCTYPE svg PUBLIC "-//W3C//DTD SVG 20010904//EN"
 "http://www.w3.org/TR/2001/REC-SVG-20010904/DTD/svg10.dtd">
<svg version="1.0" xmlns="http://www.w3.org/2000/svg"
 width="700.000000pt" height="700.000000pt" viewBox="0 0 700.000000 700.000000"
 preserveAspectRatio="xMidYMid meet">
<metadata>
Created by potrace 1.11, written by Peter Selinger 2001-2013
</metadata>
<g transform="translate(0.000000,700.000000) scale(0.100000,-0.100000)"
fill="#000000" stroke="none">
<path d="M2890 6555 l-305 -93 -5 -628 -5 -628 -25 -7 c-14 -3 -101 -30 -195
-59 -93 -29 -198 -60 -231 -70 -34 -10 -70 -21 -81 -24 -18 -6 -19 9 -19 571
0 622 3 582 -49 572 -17 -3 -20 1 -20 33 0 20 -3 39 -6 42 -3 3 -54 -10 -115
-28 -60 -19 -149 -46 -199 -61 -110 -33 -206 -62 -260 -79 l-40 -13 -3 -1406
c-1 -872 2 -1407 7 -1407 5 0 21 4 35 10 26 9 26 9 26 -35 0 -25 4 -45 10 -45
5 0 30 7 56 16 25 9 54 17 63 19 9 2 48 13 86 25 39 13 75 23 80 25 6 1 17 5
25 8 8 3 78 24 155 47 77 23 142 46 145 50 3 4 5 288 5 629 -1 342 1 621 2
621 2 0 123 36 269 80 146 44 270 80 275 80 5 0 9 -241 9 -575 l0 -576 35 7
35 6 0 -41 c0 -48 1 -48 90 -20 58 18 280 85 463 139 37 12 67 24 68 28 1 4 2
638 3 1409 1 1332 0 1403 -16 1398 -10 -3 -26 -7 -36 -10 -16 -5 -19 0 -17 35
1 22 -1 42 -4 44 -3 2 -143 -38 -311 -89z"/>
<path d="M3830 5645 c-41 -13 -120 -37 -176 -54 l-101 -31 1 -178 1 -179 -83
-23 c-46 -13 -86 -28 -90 -34 -4 -6 -7 -48 -8 -94 0 -78 1 -82 20 -76 43 14
50 10 52 -31 1 -22 2 -41 3 -42 0 -1 22 4 48 12 26 8 49 12 51 10 3 -3 6 -154
6 -337 2 -233 6 -346 15 -376 16 -58 145 -194 205 -217 81 -31 136 -27 299 22
l87 27 0 88 0 89 -35 -5 c-35 -6 -35 -6 -35 33 l0 38 -46 -1 c-29 0 -48 5 -55
14 -5 9 -8 171 -6 390 l2 375 87 25 87 25 0 88 0 88 -34 -7 -35 -6 0 41 c0 46
0 46 -63 27 l-47 -14 0 134 0 134 -26 -10 c-39 -15 -43 -13 -46 34 l-3 44 -75
-23z"/>
<path d="M5665 4414 c-367 -113 -403 -123 -507 -154 -57 -17 -114 -35 -128
-41 l-25 -9 0 -329 0 -329 24 10 c37 14 48 4 45 -39 l-2 -40 77 23 c177 52
261 77 336 101 44 14 123 38 175 53 52 16 127 38 165 50 39 12 81 23 95 26 13
3 27 8 30 10 3 3 5 153 5 333 l0 328 -29 -8 c-36 -10 -42 -3 -40 45 1 20 -1
36 -5 35 -3 0 -100 -30 -216 -65z"/>
<path d="M4405 4055 c-5 -2 -50 -16 -98 -30 -99 -30 -146 -64 -179 -129 -17
-33 -21 -60 -21 -146 -1 -112 14 -163 51 -174 10 -3 26 -19 35 -36 23 -39 81
-57 128 -41 18 6 34 9 37 7 11 -12 -76 -75 -124 -90 -52 -16 -54 -19 -54 -52
0 -18 3 -34 6 -34 3 0 39 10 79 21 46 14 92 36 124 60 61 46 65 43 12 -9 -25
-24 -60 -44 -95 -55 -54 -17 -56 -19 -56 -53 0 -18 4 -34 8 -34 22 0 141 44
179 66 53 31 116 102 150 172 25 51 27 65 30 211 2 86 1 171 -2 189 -4 23 -25
53 -64 94 -48 49 -65 60 -97 63 -21 3 -43 3 -49 0z m-50 -104 c-6 -4 -26 -13
-45 -20 l-35 -11 25 20 c24 19 74 29 55 11z m45 -140 c0 -71 -3 -83 -26 -110
-42 -50 -52 -41 -50 42 1 39 7 82 14 94 10 18 49 53 59 53 2 0 3 -36 3 -79z
m-9 -214 c-5 -5 -17 -7 -26 -4 -13 6 -13 9 5 27 11 11 21 28 22 38 0 9 3 2 5
-17 3 -18 0 -38 -6 -44z"/>
<path d="M3774 3865 c-17 -5 -65 -37 -107 -70 -71 -55 -77 -63 -77 -97 0 -37
0 -37 31 -26 16 6 33 8 36 4 4 -3 7 -115 9 -248 1 -134 2 -246 3 -250 1 -4 16
-2 33 3 18 5 34 9 34 9 1 0 1 -20 -1 -45 -1 -31 2 -45 10 -42 6 3 39 13 73 22
34 10 62 23 63 29 1 15 1 617 0 634 -1 9 -11 11 -35 6 l-35 -6 -3 44 -3 43
-31 -10z"/>
<path d="M3170 3680 c-138 -39 -165 -56 -216 -135 -17 -27 -19 -52 -22 -247
-3 -238 4 -277 52 -299 14 -7 28 -20 31 -30 8 -25 55 -52 90 -52 16 0 72 13
124 29 69 21 105 39 136 66 72 64 77 84 77 302 0 105 -1 206 -1 224 -1 25 -14
45 -60 92 -77 80 -93 84 -211 50z m20 -82 c0 -4 -7 -8 -15 -8 -9 0 -29 -7 -45
-15 -39 -20 -39 -10 0 13 31 20 60 24 60 10z m-15 -139 c-21 -47 -25 -50 -25
-26 0 27 37 93 46 84 3 -2 -7 -28 -21 -58z m49 -81 c-2 -24 -18 -74 -38 -113
l-35 -70 0 40 c-1 26 11 65 34 113 19 39 37 72 39 72 1 0 2 -19 0 -42z m1
-207 c-5 -25 -27 -60 -42 -65 -7 -3 -4 13 9 39 23 46 40 60 33 26z m31 -130
c-16 -18 -66 -35 -66 -22 0 5 61 36 79 40 2 1 -4 -8 -13 -18z"/>
<path d="M5625 3625 c-22 -7 -94 -30 -160 -50 -66 -20 -163 -49 -215 -65 -52
-16 -149 -46 -215 -66 -66 -19 -268 -81 -450 -136 -181 -55 -359 -108 -394
-119 -35 -10 -66 -20 -68 -23 -3 -3 -7 -2684 -3 -2799 0 -18 8 -18 58 0 8 4
12 -8 12 -41 0 -32 4 -44 13 -41 6 2 57 17 112 34 55 17 189 57 298 91 109 33
199 60 200 60 1 0 2 282 2 627 l0 626 165 49 c91 27 172 52 180 55 8 3 20 7
26 8 6 2 58 17 115 35 57 17 112 34 122 36 15 5 17 21 17 160 0 89 -4 154 -9
154 -5 0 -21 -4 -35 -10 -26 -9 -26 -9 -26 35 0 25 -2 45 -5 45 -3 0 -119 -34
-258 -76 -138 -42 -262 -79 -274 -81 l-22 -5 2 422 2 423 260 79 c309 94 369
112 543 164 l132 39 0 158 0 158 -22 -7 c-13 -4 -29 -9 -35 -11 -9 -4 -13 8
-13 41 0 25 -3 46 -7 45 -5 0 -26 -7 -48 -14z"/>
<path d="M2560 3496 c-110 -37 -127 -46 -156 -78 -29 -32 -46 -66 -51 -104
l-4 -31 35 11 c26 8 37 18 41 37 10 45 66 79 158 96 30 5 9 -15 -23 -22 -47
-10 -108 -73 -131 -134 l-20 -54 32 7 c17 3 35 6 40 6 5 0 9 8 9 18 0 42 54
85 120 97 31 6 32 5 25 -27 -8 -38 -67 -139 -107 -184 -48 -52 -139 -176 -159
-217 -11 -21 -22 -63 -24 -93 -3 -50 -2 -54 16 -49 60 17 56 18 53 -25 -2 -22
0 -41 4 -44 4 -2 72 17 152 41 80 24 170 51 200 60 30 8 61 18 69 23 18 9 24
80 7 75 -6 -2 -58 -18 -116 -35 -58 -18 -118 -36 -133 -42 -15 -6 -30 -8 -34
-5 -7 8 20 19 132 54 l89 28 2 36 3 36 -95 -27 -94 -28 22 32 c19 27 135 173
148 186 22 22 64 96 75 134 23 75 1 156 -45 171 -11 3 -22 14 -25 25 -8 25
-47 49 -87 54 -20 2 -71 -9 -128 -28z m99 -348 c-13 -26 -117 -155 -131 -164
-11 -7 25 44 92 129 48 62 57 69 39 35z"/>
<path d="M1760 3264 c-96 -30 -206 -64 -245 -75 -202 -60 -306 -93 -365 -112
l-65 -22 0 -323 c0 -178 3 -326 6 -328 3 -2 20 1 37 5 l30 9 -3 -44 c-1 -24 0
-44 2 -44 4 0 250 73 418 125 66 20 194 59 285 86 90 28 167 52 170 55 3 3 5
152 5 330 l0 325 -32 -6 c-18 -3 -33 -2 -34 2 -1 4 -2 21 -3 38 0 18 -7 30
-16 32 -8 1 -94 -23 -190 -53z"/>
<path d="M3550 2995 c-91 -28 -170 -53 -175 -57 -7 -4 -10 -72 -10 -180 l0
-173 -90 -30 -90 -30 0 -87 c0 -49 3 -88 7 -88 3 0 18 4 31 9 29 11 35 3 32
-46 -2 -38 -5 -37 58 -18 26 8 47 13 48 12 0 -1 2 -155 3 -342 2 -340 7 -396
40 -431 148 -158 192 -185 298 -179 35 1 83 10 108 18 25 8 71 22 103 31 l57
17 0 89 0 89 -35 -6 -35 -6 0 41 0 40 -38 -5 c-74 -10 -72 -20 -72 403 l0 374
90 27 90 28 0 87 c0 49 -4 88 -9 88 -5 0 -21 -4 -35 -10 -26 -9 -26 -9 -26 35
0 25 -3 45 -7 45 -5 0 -29 -7 -55 -15 l-48 -14 0 134 0 135 -26 -10 c-39 -15
-43 -13 -46 33 l-3 42 -165 -50z"/>
</g>
</svg>
