<?xml version="1.0" encoding="UTF-8"?>
<svg width="192px" height="32px" viewBox="0 0 192 32" version="1.1" xmlns="http://www.w3.org/2000/svg" xmlns:xlink="http://www.w3.org/1999/xlink">
    <!-- Generator: Sketch 55.2 (78181) - https://sketchapp.com -->
    <title>hashtag</title>
    <desc>Created with Sketch.</desc>
    <g id="Page-1" stroke="none" stroke-width="1" fill="none" fill-rule="evenodd">
        <path d="M3.2421875,7.6015625 L6.77734375,7.6015625 L8.0078125,1.390625 L14.4726562,1.390625 L13.2617188,7.6015625 L19.6289062,7.6015625 L20.8398438,1.390625 L27.3242188,1.390625 L26.1132812,7.6015625 L29.2382812,7.6015625 L28.0078125,13.1289062 L25.0390625,13.1289062 L23.6914062,20.0429688 L27.3632812,20.0429688 L26.1132812,25.5117188 L22.6171875,25.5117188 L21.5625,31 L15.0390625,31 L16.1132812,25.5117188 L9.82421875,25.5117188 L8.76953125,31 L2.16796875,31 L3.2421875,25.5117188 L0.15625,25.5117188 L1.40625,20.0429688 L4.31640625,20.0429688 L5.68359375,13.1289062 L1.9921875,13.1289062 L3.2421875,7.6015625 Z M10.8789062,20.0429688 L17.1875,20.0429688 L18.5351562,13.1289062 L12.2070312,13.1289062 L10.8789062,20.0429688 Z M31.1523438,0.609375 L40.2734375,0.609375 L40.2734375,12.640625 C41.0416705,11.9374965 41.884761,11.3873718 42.8027344,10.9902344 C43.7207077,10.593097 44.7330674,10.3945312 45.8398438,10.3945312 C48.2747518,10.3945312 50.1367123,11.074863 51.4257812,12.4355469 C52.7148502,13.7962308 53.359375,15.7851432 53.359375,18.4023438 L53.359375,25.6484375 L56.328125,25.6484375 L56.328125,31 L47.2851562,31 L47.2851562,19.7695312 C47.2851562,18.6367131 47.0052111,17.7447949 46.4453125,17.09375 C45.8854139,16.4427051 45.1627648,16.1171875 44.2773438,16.1171875 C43.6914033,16.1171875 43.0533889,16.2799463 42.3632812,16.6054688 C41.6731736,16.9309912 40.976566,17.4062469 40.2734375,18.03125 L40.2734375,25.6484375 L43.2421875,25.6484375 L43.2421875,31 L31.1523438,31 L31.1523438,25.6484375 L34.2773438,25.6484375 L34.2773438,5.9609375 L31.1523438,5.9609375 L31.1523438,0.609375 Z M66.3085938,10.765625 L70.3515625,10.765625 L70.3515625,15.8828125 L66.2695312,15.8828125 L66.2304688,24.4375 C66.2304688,24.9322941 66.2695309,25.3326808 66.3476562,25.6386719 C66.4257816,25.944663 66.5397128,26.1888012 66.6894531,26.3710938 C66.8391935,26.5533863 67.0182281,26.677083 67.2265625,26.7421875 C67.4348969,26.807292 67.6757799,26.8398438 67.9492188,26.8398438 C68.4440129,26.8398438 68.8802064,26.7910161 69.2578125,26.6933594 C69.6354186,26.5957026 70.0130189,26.4817715 70.390625,26.3515625 L71.2304688,30.1210938 C70.5664029,30.5377625 69.827478,30.8697904 69.0136719,31.1171875 C68.1998657,31.3645846 67.2330785,31.4882812 66.1132812,31.4882812 C65.3190064,31.4882812 64.5605505,31.3515639 63.8378906,31.078125 C63.1152308,30.8046861 62.4804715,30.3912788 61.9335938,29.8378906 C61.386716,29.2845024 60.9505225,28.59115 60.625,27.7578125 C60.2994775,26.924475 60.1432291,25.9544326 60.15625,24.8476562 L60.2148438,15.8828125 L57.3046875,15.8828125 L57.3046875,10.765625 L60.234375,10.765625 L60.2734375,5.921875 L66.3476562,3.03125 L66.3085938,10.765625 Z M81.9335938,10.765625 L85.9765625,10.765625 L85.9765625,15.8828125 L81.8945312,15.8828125 L81.8554688,24.4375 C81.8554688,24.9322941 81.8945309,25.3326808 81.9726562,25.6386719 C82.0507816,25.944663 82.1647128,26.1888012 82.3144531,26.3710938 C82.4641935,26.5533863 82.6432281,26.677083 82.8515625,26.7421875 C83.0598969,26.807292 83.3007799,26.8398438 83.5742188,26.8398438 C84.0690129,26.8398438 84.5052064,26.7910161 84.8828125,26.6933594 C85.2604186,26.5957026 85.6380189,26.4817715 86.015625,26.3515625 L86.8554688,30.1210938 C86.1914029,30.5377625 85.452478,30.8697904 84.6386719,31.1171875 C83.8248657,31.3645846 82.8580785,31.4882812 81.7382812,31.4882812 C80.9440064,31.4882812 80.1855505,31.3515639 79.4628906,31.078125 C78.7402308,30.8046861 78.1054715,30.3912788 77.5585938,29.8378906 C77.011716,29.2845024 76.5755225,28.59115 76.25,27.7578125 C75.9244775,26.924475 75.7682291,25.9544326 75.78125,24.8476562 L75.8398438,15.8828125 L72.9296875,15.8828125 L72.9296875,10.765625 L75.859375,10.765625 L75.8984375,5.921875 L81.9726562,3.03125 L81.9335938,10.765625 Z M98.7109375,10.765625 L102.402344,10.765625 L102.402344,15.8828125 L98.7109375,15.8828125 L98.7109375,25.6484375 L102.441406,25.6484375 L102.441406,31 L89.8828125,31 L89.8828125,25.6484375 L92.9101562,25.6484375 L92.9101562,15.8828125 L89.84375,15.8828125 L89.84375,10.765625 L92.9101562,10.765625 L92.9101562,7.40625 C92.9101562,6.22134824 93.1184875,5.17969199 93.5351562,4.28125 C93.951825,3.38280801 94.5084601,2.62760723 95.2050781,2.015625 C95.9016962,1.40364277 96.7057246,0.941407813 97.6171875,0.62890625 C98.5286504,0.316404687 99.4856721,0.16015625 100.488281,0.16015625 C101.230472,0.16015625 101.894528,0.215494238 102.480469,0.326171875 C103.066409,0.436849512 103.580727,0.57682207 104.023438,0.74609375 C104.466148,0.91536543 104.840493,1.09765527 105.146484,1.29296875 C105.452475,1.48828223 105.696614,1.67057207 105.878906,1.83984375 L103.632812,5.9609375 C103.333332,5.73958223 102.994794,5.56380273 102.617188,5.43359375 C102.239581,5.30338477 101.777346,5.23828125 101.230469,5.23828125 C100.878904,5.23828125 100.550132,5.29687441 100.244141,5.4140625 C99.9381495,5.53125059 99.6712251,5.70051973 99.4433594,5.921875 C99.2154937,6.14323027 99.036459,6.41992021 98.90625,6.75195312 C98.776041,7.08398604 98.7109375,7.47135195 98.7109375,7.9140625 L98.7109375,10.765625 Z M106.757812,25.921875 L116.992188,15.0429688 C117.877609,14.1835895 118.561196,13.324223 119.042969,12.4648438 C119.524742,11.6054645 119.765625,10.7330773 119.765625,9.84765625 C119.765625,9.4700502 119.687501,9.09570498 119.53125,8.72460938 C119.374999,8.35351377 119.150392,8.02148584 118.857422,7.72851562 C118.564452,7.43554541 118.206382,7.20117275 117.783203,7.02539062 C117.360024,6.8496085 116.881513,6.76171875 116.347656,6.76171875 C115.709632,6.76171875 115.152997,6.8626292 114.677734,7.06445312 C114.202472,7.26627705 113.80534,7.54296699 113.486328,7.89453125 C113.167316,8.24609551 112.923178,8.65624766 112.753906,9.125 C112.584635,9.59375234 112.49349,10.0885391 112.480469,10.609375 L106.601562,10.609375 C106.601562,9.07290898 106.855466,7.70247998 107.363281,6.49804688 C107.871096,5.29361377 108.570959,4.27799893 109.462891,3.45117188 C110.354822,2.62434482 111.399734,1.9960959 112.597656,1.56640625 C113.795579,1.1367166 115.078118,0.921875 116.445312,0.921875 C117.734381,0.921875 118.961583,1.11718555 120.126953,1.5078125 C121.292324,1.89843945 122.320959,2.47135039 123.212891,3.2265625 C124.104822,3.98177461 124.811195,4.91275488 125.332031,6.01953125 C125.852867,7.12630762 126.113281,8.40233652 126.113281,9.84765625 C126.113281,11.0065162 125.875653,12.077469 125.400391,13.0605469 C124.925128,14.0436247 124.283858,14.9843705 123.476562,15.8828125 L115.039062,25.0039062 L126.074219,25.0039062 L126.074219,31 L106.757812,31 L106.757812,25.921875 Z M140.410156,31.2734375 C138.326812,31.2734375 136.555997,30.8893268 135.097656,30.1210938 C133.639316,29.3528607 132.451176,28.2949286 131.533203,26.9472656 C130.61523,25.5996026 129.944664,24.0110769 129.521484,22.1816406 C129.098305,20.3522044 128.886719,18.382823 128.886719,16.2734375 C128.886719,14.1900938 129.08854,12.2272228 129.492188,10.3847656 C129.895835,8.5423085 130.553381,6.92774131 131.464844,5.54101562 C132.376307,4.15428994 133.567701,3.0572957 135.039062,2.25 C136.510424,1.4427043 138.313791,1.0390625 140.449219,1.0390625 C142.558604,1.0390625 144.345696,1.43619395 145.810547,2.23046875 C147.275398,3.02474355 148.463537,4.10546191 149.375,5.47265625 C150.286463,6.83985059 150.947264,8.43814189 151.357422,10.2675781 C151.76758,12.0970144 151.972656,14.0468646 151.972656,16.1171875 C151.972656,18.2135521 151.76107,20.1829335 151.337891,22.0253906 C150.914711,23.8678478 150.244145,25.4726494 149.326172,26.8398438 C148.408199,28.2070381 147.213549,29.2877564 145.742188,30.0820312 C144.270826,30.8763061 142.4935,31.2734375 140.410156,31.2734375 Z M140.410156,25.2773438 C141.569016,25.2773438 142.490231,25.0462263 143.173828,24.5839844 C143.857425,24.1217425 144.381509,23.483728 144.746094,22.6699219 C145.110679,21.8561157 145.345052,20.8893285 145.449219,19.7695312 C145.553386,18.649734 145.605469,17.4322982 145.605469,16.1171875 C145.605469,14.8281186 145.553386,13.6269587 145.449219,12.5136719 C145.345052,11.4003851 145.113934,10.4303427 144.755859,9.60351562 C144.397785,8.77668857 143.876957,8.12890859 143.193359,7.66015625 C142.509762,7.19140391 141.595058,6.95703125 140.449219,6.95703125 C139.290359,6.95703125 138.365889,7.19140391 137.675781,7.66015625 C136.985674,8.12890859 136.458335,8.77668857 136.09375,9.60351562 C135.729165,10.4303427 135.491537,11.4003851 135.380859,12.5136719 C135.270182,13.6269587 135.214844,14.8281186 135.214844,16.1171875 C135.214844,17.4322982 135.270182,18.649734 135.380859,19.7695312 C135.491537,20.8893285 135.72591,21.8561157 136.083984,22.6699219 C136.442059,23.483728 136.962887,24.1217425 137.646484,24.5839844 C138.330082,25.0462263 139.251296,25.2773438 140.410156,25.2773438 Z M154.84375,25.6484375 L157.949219,25.6484375 L157.949219,10.1992188 L153.398438,12.9140625 L153.398438,6.1171875 L161.5625,1.3125 L164.394531,1.3515625 L164.394531,25.6484375 L167.519531,25.6484375 L167.519531,31 L154.84375,31 L154.84375,25.6484375 Z M174.472656,31.0390625 L180.46875,20.4921875 C180.117186,20.5182293 179.778647,20.5117189 179.453125,20.4726562 C179.127603,20.4335936 178.815106,20.3815107 178.515625,20.3164062 C177.408849,20.1080719 176.373703,19.7272163 175.410156,19.1738281 C174.44661,18.6204399 173.606774,17.936853 172.890625,17.1230469 C172.174476,16.3092407 171.61133,15.388026 171.201172,14.359375 C170.791014,13.330724 170.585938,12.236985 170.585938,11.078125 C170.585938,9.65884707 170.856117,8.34375605 171.396484,7.1328125 C171.936852,5.92186895 172.669266,4.87370234 173.59375,3.98828125 C174.518234,3.10286016 175.605462,2.40950771 176.855469,1.90820312 C178.105475,1.40689854 179.433587,1.15625 180.839844,1.15625 C182.220059,1.15625 183.52864,1.40689854 184.765625,1.90820312 C186.00261,2.40950771 187.086584,3.0963498 188.017578,3.96875 C188.948572,4.8411502 189.684242,5.86978574 190.224609,7.0546875 C190.764977,8.23958926 191.035156,9.51561816 191.035156,10.8828125 C191.035156,11.5338574 190.970053,12.155596 190.839844,12.7480469 C190.709635,13.3404978 190.5306,13.9166639 190.302734,14.4765625 C190.074869,15.0364611 189.81771,15.589841 189.53125,16.1367188 C189.24479,16.6835965 188.945314,17.2369764 188.632812,17.796875 L181.308594,31.0390625 L174.472656,31.0390625 Z M180.957031,14.9648438 C181.712243,14.9648438 182.402341,14.8313815 183.027344,14.5644531 C183.652347,14.2975247 184.173175,13.8971381 184.589844,13.3632812 C184.772136,13.0247379 184.92513,12.656903 185.048828,12.2597656 C185.172527,11.8626282 185.234375,11.4296898 185.234375,10.9609375 C185.234375,10.518227 185.146485,10.055992 184.970703,9.57421875 C184.794921,9.09244551 184.527997,8.6497416 184.169922,8.24609375 C183.811847,7.8424459 183.356123,7.51367314 182.802734,7.25976562 C182.249346,7.00585811 181.595056,6.87890625 180.839844,6.87890625 C180.292966,6.87890625 179.755862,6.97005117 179.228516,7.15234375 C178.701169,7.33463633 178.225914,7.59830557 177.802734,7.94335938 C177.379555,8.28841318 177.037762,8.71158604 176.777344,9.21289062 C176.516926,9.71419521 176.386719,10.283851 176.386719,10.921875 C176.386719,11.5338572 176.50716,12.0872371 176.748047,12.5820312 C176.988933,13.0768254 177.314451,13.4999982 177.724609,13.8515625 C178.134768,14.2031268 178.619789,14.4765615 179.179688,14.671875 C179.739586,14.8671885 180.332028,14.9648438 180.957031,14.9648438 Z" id="#httf2019" fill="#000000" fill-rule="nonzero"></path>
    </g>
</svg>