<?xml version="1.0" encoding="UTF-8"?>
<svg width="156px" height="76px" viewBox="0 0 156 76" version="1.1" xmlns="http://www.w3.org/2000/svg" xmlns:xlink="http://www.w3.org/1999/xlink">
    <!-- Generator: Sketch 55.2 (78181) - https://sketchapp.com -->
    <title>brand</title>
    <desc>Created with Sketch.</desc>
    <defs>
        <path d="M33.8983051,74.5762712 L33.8983051,42.4545315 L51.5254237,37.0621469 L51.5254237,40.6423825 L40.9425382,43.8798366 L40.9425382,54.5870832 L48.0198429,52.4220357 L48.0198429,55.9688111 L40.9425382,58.1338586 L40.9425382,72.4213407 L33.8983051,74.5762712 Z M25.089509,45.072113 L29.1477791,43.8418079 L29.1477791,47.9108013 L31.1864407,47.2927608 L31.1864407,49.3368091 L29.1477791,49.9548497 L29.1477791,58.1119398 C29.1477791,58.7678215 29.36371,59.2038154 29.7955781,59.4199345 C30.2274463,59.6360535 30.6275534,59.6882766 30.9959116,59.5766051 L31.1864407,59.5188443 L31.1864407,61.5628927 L29.1477791,62.1809332 C28.0300027,62.5197983 27.0741912,62.4099897 26.280316,61.851504 C25.4864407,61.2930184 25.089509,60.456607 25.089509,59.3422449 L25.089509,51.1851548 L23.0508475,51.8031953 L23.0508475,49.759147 L25.089509,49.1411064 L25.089509,45.072113 Z" id="path-1"></path>
        <filter x="-1.8%" y="-1.3%" width="107.0%" height="105.3%" filterUnits="objectBoundingBox" id="filter-2">
            <feOffset dx="1" dy="1" in="SourceAlpha" result="shadowOffsetOuter1"></feOffset>
            <feColorMatrix values="0 0 0 0 1   0 0 0 0 1   0 0 0 0 1  0 0 0 1 0" type="matrix" in="shadowOffsetOuter1"></feColorMatrix>
        </filter>
        <path d="M28.2533508,12.5297401 L32.311621,11.299435 L32.311621,15.3684285 L34.3502825,14.7503879 L34.3502825,16.7944362 L32.311621,17.4124768 L32.311621,25.5695669 C32.311621,26.2254487 32.5275518,26.6614425 32.9594199,26.8775616 C33.3912881,27.0936807 33.7913952,27.1459037 34.1597534,27.0342322 L34.3502825,26.9764714 L34.3502825,29.0205198 L32.311621,29.6385604 C31.1938446,29.9774254 30.2380331,29.8676168 29.4441578,29.3091311 C28.6502825,28.7506455 28.2533508,27.9142342 28.2533508,26.799872 L28.2533508,18.6427819 L26.2146893,19.2608225 L26.2146893,17.2167741 L28.2533508,16.5987335 L28.2533508,12.5297401 Z M2.71186441,38.4180791 L2.71186441,6.44495194 L9.93220339,4.29999137 L9.93220339,18.5213719 L17.1864407,16.3663411 L17.1864407,2.14496057 L24.4067797,-1.0658141e-14 L24.4067797,31.9731272 L17.1864407,34.1180877 L17.1864407,19.8967072 L9.93220339,22.051738 L9.93220339,36.2731185 L2.71186441,38.4180791 Z" id="path-3"></path>
        <filter x="-1.6%" y="-1.3%" width="106.3%" height="105.2%" filterUnits="objectBoundingBox" id="filter-4">
            <feOffset dx="1" dy="1" in="SourceAlpha" result="shadowOffsetOuter1"></feOffset>
            <feColorMatrix values="0 0 0 0 1   0 0 0 0 1   0 0 0 0 1  0 0 0 1 0" type="matrix" in="shadowOffsetOuter1"></feColorMatrix>
        </filter>
        <path d="M15.2944915,40.01329 L14.4632768,40.2665587 C14.5927502,39.1178803 15.1442983,38.3952194 16.1179379,38.0985544 L17.7803672,37.5920171 C18.2335239,37.4539416 18.6225855,37.499434 18.9475636,37.7284958 C19.2725416,37.9575575 19.4350282,38.2986158 19.4350282,38.7516808 L19.4350282,39.1734979 C19.4350282,39.7489426 18.9003114,40.6578531 17.8308616,41.9002566 L17.7221045,42.0310374 C16.6526547,43.2760448 16.1179379,44.1615213 16.1179379,44.6874933 L16.1179379,44.7617019 L19.4350282,43.7509943 L19.4350282,44.5868171 L14.4632768,46.1016949 L14.4632768,45.2658722 C14.4632768,44.6904275 14.996699,43.7806096 16.0635593,42.5363912 L16.1762006,42.4044269 C17.2456504,41.1620234 17.7803672,40.2531129 17.7803672,39.6776682 L17.7803672,39.2558511 C17.7803672,39.0293186 17.6975055,38.8599335 17.5317797,38.7476908 C17.3660538,38.6354481 17.1718467,38.6132542 16.9491525,38.6811085 L16.1179379,38.9343771 C15.6078129,39.0898107 15.3333335,39.4494447 15.2944915,40.01329 Z M22.8975989,35.8368072 L24.5600282,35.3318822 C25.0131849,35.1942461 25.4022465,35.2395938 25.7272246,35.4679264 C26.0522027,35.6962591 26.2146893,36.0362318 26.2146893,36.4878549 L26.2146893,40.6458804 C26.2146893,41.0949079 26.0522027,41.532935 25.7272246,41.9599748 C25.4022465,42.3870146 25.0131849,42.6693483 24.5600282,42.8069843 L22.8975989,43.3119093 C22.4444422,43.4495453 22.0553806,43.4048466 21.7304025,43.1778117 C21.4054245,42.9507768 21.2429379,42.6101552 21.2429379,42.1559366 L21.2429379,37.9979111 C21.2429379,37.5436925 21.4054245,37.1043677 21.7304025,36.6799234 C22.0553806,36.2554792 22.4444422,35.9744432 22.8975989,35.8368072 Z M22.5988701,41.9709971 C22.6444598,42.1959228 22.7420489,42.3472622 22.8916403,42.4250199 C23.0412317,42.5027776 23.2413962,42.5060199 23.4921398,42.4347467 C23.7457328,42.3626637 23.9615686,42.2171192 24.1396535,41.998109 C24.3177385,41.7790988 24.4067797,41.5546641 24.4067797,41.3247983 L24.4067797,38.4180791 L22.5988701,41.9709971 Z M24.4067797,37.1082464 C24.2817035,36.6735147 23.9832309,36.5233662 23.5113527,36.6577963 C23.2612005,36.7290605 23.0465844,36.873716 22.8674981,37.0917672 C22.6884119,37.3098185 22.5988701,37.5350954 22.5988701,37.7676048 L22.5988701,40.6779661 L24.4067797,37.1082464 Z M29.3813559,41.5819209 L29.3813559,35.6502127 L28.4745763,35.9076729 L28.4745763,35.065958 L30.2838983,33.7025849 L31.1864407,33.4463277 L31.1864407,41.0694066 L29.3813559,41.5819209 Z M35.7062147,33.2794491 L35.7062147,35.0537346 C35.7062147,35.2914127 35.7942156,35.4711352 35.9702202,35.5929077 C36.1462247,35.7146802 36.359539,35.7382997 36.6101695,35.6637668 C36.8551678,35.5909088 37.0670741,35.4408366 37.2458947,35.2135457 C37.4247153,34.9862547 37.5141243,34.7537737 37.5141243,34.5160956 L37.5141243,32.7418102 C37.5141243,32.5013684 37.4247153,32.3213736 37.2458947,32.2018204 C37.0670741,32.0822672 36.8551678,32.05892 36.6101695,32.131778 C36.3623551,32.2054734 36.1497448,32.355755 35.9723322,32.5826272 C35.7949196,32.8094994 35.7062147,33.0417711 35.7062147,33.2794491 Z M37.6596045,35.5591533 C37.6000468,36.1520029 37.3255674,36.5252487 36.8361582,36.6789018 L36.0049435,36.939867 C35.5543763,37.0813254 35.1659621,37.034918 34.8396893,36.8006434 C34.5134164,36.5663687 34.3502825,36.2144786 34.3502825,35.7449626 L34.3502825,34.022518 C34.3502825,33.5556849 34.5127691,33.1022349 34.8377472,32.6621544 C35.1627253,32.2220739 35.5517868,31.9309023 36.0049435,31.7886308 L37.6673729,31.2667005 C38.1205296,31.1244291 38.5095911,31.171304 38.8345692,31.4073266 C39.1595473,31.6433492 39.3220339,31.9947718 39.3220339,32.4616049 L39.3220339,35.4718586 C39.3220339,36.290158 39.0371968,37.0845187 38.4675141,37.8549644 C37.8978314,38.6254102 37.2142224,39.1358242 36.4166667,39.386222 L35.1814972,39.7740113 L35.1814972,38.912789 L36.0049435,38.6542628 C36.4606897,38.5111784 36.8503986,38.2198035 37.1740819,37.7801295 C37.4977653,37.3404555 37.6596045,36.8872087 37.6596045,36.4203756 L37.6596045,35.5591533 Z" id="path-5"></path>
        <filter x="-2.0%" y="-3.4%" width="108.0%" height="113.4%" filterUnits="objectBoundingBox" id="filter-6">
            <feOffset dx="1" dy="1" in="SourceAlpha" result="shadowOffsetOuter1"></feOffset>
            <feColorMatrix values="0 0 0 0 0   0 0 0 0 0   0 0 0 0 0  0 0 0 0.5 0" type="matrix" in="shadowOffsetOuter1"></feColorMatrix>
        </filter>
        <polygon id="path-7" points="42.4858757 29.8834023 52.4293785 26.8926554 52.4293785 34.2973887 42.4858757 37.2881356"></polygon>
        <filter x="-5.0%" y="-4.8%" width="120.1%" height="119.2%" filterUnits="objectBoundingBox" id="filter-8">
            <feOffset dx="1" dy="1" in="SourceAlpha" result="shadowOffsetOuter1"></feOffset>
            <feColorMatrix values="0 0 0 0 0   0 0 0 0 0   0 0 0 0 0  0 0 0 0.5 0" type="matrix" in="shadowOffsetOuter1"></feColorMatrix>
        </filter>
        <polygon id="path-9" points="1.32338585e-13 42.7647582 9.94350282 39.7740113 9.94350282 47.1787446 1.32338585e-13 50.1694915"></polygon>
        <filter x="-5.0%" y="-4.8%" width="120.1%" height="119.2%" filterUnits="objectBoundingBox" id="filter-10">
            <feOffset dx="1" dy="1" in="SourceAlpha" result="shadowOffsetOuter1"></feOffset>
            <feColorMatrix values="0 0 0 0 0   0 0 0 0 0   0 0 0 0 0  0 0 0 0.5 0" type="matrix" in="shadowOffsetOuter1"></feColorMatrix>
        </filter>
    </defs>
    <g id="Welcome" stroke="none" stroke-width="1" fill="none" fill-rule="evenodd">
        <g id="Mobile-Portrait" transform="translate(-81.000000, -11.000000)">
            <g id="brand" transform="translate(81.000000, 11.000000)">
                <path d="M76.8056497,33.2158192 L74.2926554,33.2158192 L74.2926554,27.900565 L68.7062147,27.900565 L68.7062147,33.2158192 L66.2112994,33.2158192 L66.2112994,20.3977401 L68.7062147,20.3977401 L68.7062147,25.5502825 L74.2926554,25.5502825 L74.2926554,20.3977401 L76.8056497,20.3977401 L76.8056497,33.2158192 Z M79.0112994,30.7932203 C79.0112994,29.2022599 80.1864407,28.3163842 81.6689266,28.099435 L83.8564972,27.7740113 C84.3627119,27.7016949 84.5254237,27.4485876 84.5254237,27.1412429 C84.5254237,26.5084746 84.0372881,25.9841808 83.0248588,25.9841808 C81.9762712,25.9841808 81.3977401,26.6531073 81.3254237,27.4305085 L79.1920904,26.9785311 C79.3367232,25.5864407 80.620339,24.0497175 83.0067797,24.0497175 C85.8271186,24.0497175 86.8757062,25.640678 86.8757062,27.4305085 L86.8757062,31.8056497 C86.8757062,32.2757062 86.9299435,32.9084746 86.9841808,33.2158192 L84.7785311,33.2158192 C84.7242938,32.980791 84.6881356,32.4926554 84.6881356,32.1491525 C84.2361582,32.8542373 83.3864407,33.4689266 82.0666667,33.4689266 C80.1683616,33.4689266 79.0112994,32.1853107 79.0112994,30.7932203 Z M82.5728814,31.679096 C83.5853107,31.679096 84.5254237,31.1909605 84.5254237,29.6180791 L84.5254237,29.220339 L82.5186441,29.5276836 C81.9039548,29.6180791 81.4158192,29.9615819 81.4158192,30.6485876 C81.4158192,31.1728814 81.7954802,31.679096 82.5728814,31.679096 Z M91.7028249,33.2158192 L89.2983051,33.2158192 L89.2983051,20.1265537 L91.7028249,20.1265537 L91.7028249,33.2158192 Z M98.3920904,22.1152542 C97.8497175,22.1152542 97.1446328,22.3502825 97.1446328,23.3446328 L97.1446328,24.320904 L99.1514124,24.320904 L99.1514124,26.3819209 L97.1446328,26.3819209 L97.1446328,33.2158192 L94.7220339,33.2158192 L94.7220339,26.3819209 L93.239548,26.3819209 L93.239548,24.320904 L94.7220339,24.320904 L94.7220339,23.3084746 C94.7220339,21.3016949 95.9875706,20 97.9581921,20 C98.4644068,20 98.9525424,20.0903955 99.1514124,20.180791 L99.1514124,22.2056497 C99.0248588,22.1694915 98.7898305,22.1152542 98.3920904,22.1152542 Z M105.750282,24.320904 L108.281356,24.320904 L110.19774,30.0519774 L111.842938,24.320904 L114.229379,24.320904 L111.445198,33.2158192 L109.040678,33.2158192 L106.961582,27.1412429 L104.918644,33.2158192 L102.477966,33.2158192 L99.639548,24.320904 L102.170621,24.320904 L103.815819,30.0338983 L105.750282,24.320904 Z M115.187571,30.7932203 C115.187571,29.2022599 116.362712,28.3163842 117.845198,28.099435 L120.032768,27.7740113 C120.538983,27.7016949 120.701695,27.4485876 120.701695,27.1412429 C120.701695,26.5084746 120.213559,25.9841808 119.20113,25.9841808 C118.152542,25.9841808 117.574011,26.6531073 117.501695,27.4305085 L115.368362,26.9785311 C115.512994,25.5864407 116.79661,24.0497175 119.183051,24.0497175 C122.00339,24.0497175 123.051977,25.640678 123.051977,27.4305085 L123.051977,31.8056497 C123.051977,32.2757062 123.106215,32.9084746 123.160452,33.2158192 L120.954802,33.2158192 C120.900565,32.980791 120.864407,32.4926554 120.864407,32.1491525 C120.412429,32.8542373 119.562712,33.4689266 118.242938,33.4689266 C116.344633,33.4689266 115.187571,32.1853107 115.187571,30.7932203 Z M118.749153,31.679096 C119.761582,31.679096 120.701695,31.1909605 120.701695,29.6180791 L120.701695,29.220339 L118.694915,29.5276836 C118.080226,29.6180791 117.59209,29.9615819 117.59209,30.6485876 C117.59209,31.1728814 117.971751,31.679096 118.749153,31.679096 Z M128.548023,36.7231638 L125.99887,36.7231638 L128.096045,32.0949153 L124.317514,24.320904 L127.011299,24.320904 L129.379661,29.5276836 L131.567232,24.320904 L134.134463,24.320904 L128.548023,36.7231638 Z M143.029379,21.6632768 L143.029379,24.320904 L144.819209,24.320904 L144.819209,26.4542373 L143.029379,26.4542373 L143.029379,30.1785311 C143.029379,30.9559322 143.39096,31.2090395 144.077966,31.2090395 C144.367232,31.2090395 144.692655,31.1728814 144.819209,31.1367232 L144.819209,33.1254237 C144.60226,33.2158192 144.168362,33.3423729 143.463277,33.3423729 C141.727684,33.3423729 140.642938,32.3118644 140.642938,30.5943503 L140.642938,26.4542373 L139.033898,26.4542373 L139.033898,24.320904 L139.485876,24.320904 C140.425989,24.320904 140.859887,23.7062147 140.859887,22.9107345 L140.859887,21.6632768 L143.029379,21.6632768 Z M150.80339,31.299435 C151.978531,31.299435 153.063277,30.4497175 153.063277,28.7683616 C153.063277,27.0870056 151.978531,26.2372881 150.80339,26.2372881 C149.628249,26.2372881 148.543503,27.0870056 148.543503,28.7683616 C148.543503,30.4316384 149.628249,31.299435 150.80339,31.299435 Z M150.80339,24.0497175 C153.461017,24.0497175 155.467797,26.020339 155.467797,28.7683616 C155.467797,31.4983051 153.461017,33.4870056 150.80339,33.4870056 C148.145763,33.4870056 146.138983,31.4983051 146.138983,28.7683616 C146.138983,26.020339 148.145763,24.0497175 150.80339,24.0497175 Z M68.9954802,44.6632768 L68.9954802,47.320904 L70.7853107,47.320904 L70.7853107,49.4542373 L68.9954802,49.4542373 L68.9954802,53.1785311 C68.9954802,53.9559322 69.3570621,54.2090395 70.0440678,54.2090395 C70.3333333,54.2090395 70.6587571,54.1728814 70.7853107,54.1367232 L70.7853107,56.1254237 C70.5683616,56.2158192 70.1344633,56.3423729 69.4293785,56.3423729 C67.6937853,56.3423729 66.6090395,55.3118644 66.6090395,53.5943503 L66.6090395,49.4542373 L65,49.4542373 L65,47.320904 L65.4519774,47.320904 C66.3920904,47.320904 66.8259887,46.7062147 66.8259887,45.9107345 L66.8259887,44.6632768 L68.9954802,44.6632768 Z M75.1785311,50.9909605 L75.1785311,56.2158192 L72.7740113,56.2158192 L72.7740113,43.1265537 L75.1785311,43.1265537 L75.1785311,48.0621469 C75.7570621,47.3751412 76.7333333,47.0858757 77.5830508,47.0858757 C79.8429379,47.0858757 80.8915254,48.6587571 80.8915254,50.6112994 L80.8915254,56.2158192 L78.4870056,56.2158192 L78.4870056,51.0271186 C78.4870056,50.0327684 77.9988701,49.2553672 76.8418079,49.2553672 C75.8293785,49.2553672 75.2327684,50.0146893 75.1785311,50.9909605 Z M85.0858757,50.7559322 L89.0632768,50.7559322 C89.0271186,49.8700565 88.4485876,49.0022599 87.0745763,49.0022599 C85.8271186,49.0022599 85.140113,49.9423729 85.0858757,50.7559322 Z M89.2983051,53.0700565 L91.3050847,53.6666667 C90.8531073,55.2033898 89.4429379,56.4870056 87.2553672,56.4870056 C84.8146893,56.4870056 82.6632768,54.7333333 82.6632768,51.7322034 C82.6632768,48.8937853 84.760452,47.0497175 87.0384181,47.0497175 C89.7864407,47.0497175 91.4316384,48.8033898 91.4316384,51.659887 C91.4316384,52.0033898 91.3954802,52.3649718 91.3954802,52.4011299 L85.0316384,52.4011299 C85.0858757,53.5762712 86.080226,54.4259887 87.2734463,54.4259887 C88.3943503,54.4259887 89.0090395,53.8655367 89.2983051,53.0700565 Z M100.489266,56.2158192 L97.9762712,56.2158192 L97.9762712,43.3977401 L106.075706,43.3977401 L106.075706,45.7661017 L100.471186,45.7661017 L100.471186,48.9299435 L105.461017,48.9299435 L105.461017,51.2259887 L100.489266,51.2259887 L100.489266,56.2158192 Z M113.777401,56.2158192 C113.741243,56.0350282 113.705085,55.619209 113.705085,55.2576271 C113.216949,56.0892655 112.186441,56.4508475 111.246328,56.4508475 C109.094915,56.4508475 107.865537,54.8779661 107.865537,52.9435028 L107.865537,47.320904 L110.270056,47.320904 L110.270056,52.4553672 C110.270056,53.4497175 110.776271,54.2451977 111.897175,54.2451977 C112.963842,54.2451977 113.578531,53.5220339 113.578531,52.4915254 L113.578531,47.320904 L115.983051,47.320904 L115.983051,54.6067797 C115.983051,55.2937853 116.037288,55.9084746 116.073446,56.2158192 L113.777401,56.2158192 Z M121.515254,44.6632768 L121.515254,47.320904 L123.305085,47.320904 L123.305085,49.4542373 L121.515254,49.4542373 L121.515254,53.1785311 C121.515254,53.9559322 121.876836,54.2090395 122.563842,54.2090395 C122.853107,54.2090395 123.178531,54.1728814 123.305085,54.1367232 L123.305085,56.1254237 C123.088136,56.2158192 122.654237,56.3423729 121.949153,56.3423729 C120.213559,56.3423729 119.128814,55.3118644 119.128814,53.5943503 L119.128814,49.4542373 L117.519774,49.4542373 L117.519774,47.320904 L117.971751,47.320904 C118.911864,47.320904 119.345763,46.7062147 119.345763,45.9107345 L119.345763,44.6632768 L121.515254,44.6632768 Z M131.115254,56.2158192 C131.079096,56.0350282 131.042938,55.619209 131.042938,55.2576271 C130.554802,56.0892655 129.524294,56.4508475 128.584181,56.4508475 C126.432768,56.4508475 125.20339,54.8779661 125.20339,52.9435028 L125.20339,47.320904 L127.60791,47.320904 L127.60791,52.4553672 C127.60791,53.4497175 128.114124,54.2451977 129.235028,54.2451977 C130.301695,54.2451977 130.916384,53.5220339 130.916384,52.4915254 L130.916384,47.320904 L133.320904,47.320904 L133.320904,54.6067797 C133.320904,55.2937853 133.375141,55.9084746 133.411299,56.2158192 L131.115254,56.2158192 Z M141.311864,47.2847458 L141.311864,49.7073446 C141.040678,49.6531073 140.80565,49.6350282 140.588701,49.6350282 C139.359322,49.6350282 138.292655,50.2316384 138.292655,52.1480226 L138.292655,56.2158192 L135.888136,56.2158192 L135.888136,47.320904 L138.220339,47.320904 L138.220339,48.640678 C138.762712,47.4655367 139.99209,47.2485876 140.751412,47.2485876 C140.950282,47.2485876 141.131073,47.2666667 141.311864,47.2847458 Z M144.710734,50.7559322 L148.688136,50.7559322 C148.651977,49.8700565 148.073446,49.0022599 146.699435,49.0022599 C145.451977,49.0022599 144.764972,49.9423729 144.710734,50.7559322 Z M148.923164,53.0700565 L150.929944,53.6666667 C150.477966,55.2033898 149.067797,56.4870056 146.880226,56.4870056 C144.439548,56.4870056 142.288136,54.7333333 142.288136,51.7322034 C142.288136,48.8937853 144.385311,47.0497175 146.663277,47.0497175 C149.411299,47.0497175 151.056497,48.8033898 151.056497,51.659887 C151.056497,52.0033898 151.020339,52.3649718 151.020339,52.4011299 L144.656497,52.4011299 C144.710734,53.5762712 145.705085,54.4259887 146.898305,54.4259887 C148.019209,54.4259887 148.633898,53.8655367 148.923164,53.0700565 Z" id="HalfwaytotheFuture" fill="#000000" fill-rule="nonzero"></path>
                <g id="Group">
                    <g id="tf">
                        <use fill="black" fill-opacity="1" filter="url(#filter-2)" xlink:href="#path-1"></use>
                        <use fill="#000000" fill-rule="evenodd" xlink:href="#path-1"></use>
                    </g>
                    <g id="ht">
                        <use fill="black" fill-opacity="1" filter="url(#filter-4)" xlink:href="#path-3"></use>
                        <use fill="#000000" fill-rule="evenodd" xlink:href="#path-3"></use>
                    </g>
                    <g id="2019">
                        <use fill="black" fill-opacity="1" filter="url(#filter-6)" xlink:href="#path-5"></use>
                        <use fill="#FFFFFF" fill-rule="evenodd" xlink:href="#path-5"></use>
                    </g>
                    <g id="Rectangle" fill-rule="nonzero">
                        <use fill="black" fill-opacity="1" filter="url(#filter-8)" xlink:href="#path-7"></use>
                        <use fill="#FFFFFF" xlink:href="#path-7"></use>
                    </g>
                    <g id="Rectangle" fill-rule="nonzero">
                        <use fill="black" fill-opacity="1" filter="url(#filter-10)" xlink:href="#path-9"></use>
                        <use fill="#FFFFFF" xlink:href="#path-9"></use>
                    </g>
                </g>
            </g>
        </g>
    </g>
</svg>